<?xml version="1.0" encoding="UTF-8" standalone="no"?>
<!-- Generator: Adobe Illustrator 14.0.0, SVG Export Plug-In . SVG Version: 6.00 Build 43363)  -->
<svg xmlns:dc="http://purl.org/dc/elements/1.1/" xmlns:cc="http://creativecommons.org/ns#" xmlns:rdf="http://www.w3.org/1999/02/22-rdf-syntax-ns#" xmlns:svg="http://www.w3.org/2000/svg" xmlns="http://www.w3.org/2000/svg" xmlns:xlink="http://www.w3.org/1999/xlink" xmlns:sodipodi="http://sodipodi.sourceforge.net/DTD/sodipodi-0.dtd" xmlns:inkscape="http://www.inkscape.org/namespaces/inkscape" version="1.1" id="レイヤー_1" x="0px" y="0px" width="508.92801" height="414.76401" viewBox="0 0 508.92801 414.76401" enable-background="new 0 0 543 450" xml:space="preserve" sodipodi:docname="mgc-chara.svg" inkscape:version="0.92.4 (unknown)"><metadata id="metadata365"><rdf:RDF><cc:Work rdf:about=""><dc:format>image/svg+xml</dc:format><dc:type rdf:resource="http://purl.org/dc/dcmitype/StillImage"/><dc:title/></cc:Work></rdf:RDF></metadata><defs id="defs363"/><sodipodi:namedview pagecolor="#ffffff" bordercolor="#666666" borderopacity="1" objecttolerance="10" gridtolerance="10" guidetolerance="10" inkscape:pageopacity="0" inkscape:pageshadow="2" inkscape:window-width="995" inkscape:window-height="480" id="namedview361" showgrid="false" inkscape:zoom="0.52444444" inkscape:cx="271.5" inkscape:cy="225" inkscape:window-x="0" inkscape:window-y="27" inkscape:window-maximized="0" inkscape:current-layer="レイヤー_1"/>
<g id="g358" transform="translate(-17.899958,-17.472333)">
	<path d="m 227.523,296.709 c 0.499,0.422 17.631,11.905 43.584,19.158 12.932,3.614 33.454,6.862 41.416,20.986 2.998,5.321 2.723,10.717 0.423,13.425 -3.128,3.69 -12.051,5.739 -25.255,0.936 -4.602,-1.672 -13.226,-5.889 -20.355,-10.177 -13.172,-7.923 -35.063,-17.238 -54.602,-22.729 -23.291,-6.547 -46.042,-4.929 -67.688,4.328 l 3.521,5.554 c 11.309,-6.666 28.274,-10.793 40.611,-10.425 29.286,0.87 59.811,16.644 77.936,27.549 7.352,4.419 13.695,8.237 18.744,10.07 13.785,5.014 25.609,4.282 30.86,-1.909 2.16,-2.551 4.967,-8.289 -0.551,-18.079 -9.023,-16.005 -34.082,-19.18 -47.771,-23.255 -24.496,-7.288 -37.572,-19.115 -37.688,-19.214 z" id="path2" inkscape:connector-curvature="0"/>
	<path d="m 118.046,334.483 c 1.162,0.714 4.997,1.844 11.758,2.536 6.762,0.69 26.666,-0.846 29.507,-1.077 2.845,-0.229 0.616,-3.071 -2.149,-4.533 -2.766,-1.459 -7.146,-2.919 -8.068,-5.608 -0.925,-2.691 3.074,-7.225 4.072,-9.301 0.998,-2.073 0.693,-3.688 -4.304,-2.458 -4.995,1.228 -13.633,5.286 -19.598,8.453 -6.222,3.306 -15.828,9.144 -11.218,11.988 z" id="path4" inkscape:connector-curvature="0"/>
	<path d="m 335.247,188.169 c -6.821,-1.486 -14.033,-0.655 -13.297,0.004 9.634,8.641 3.181,16.293 1.778,18.408 -3.033,4.565 -29.902,21.253 -36.563,20.83 -3.353,-0.216 -12.771,-5.021 -17.129,-7.817 -0.404,-0.259 -11.786,-5.867 -12.261,-5.954 -16.636,-3.067 -11.985,7.694 -12.793,8.425 0.055,-0.049 0.112,-0.095 0.172,-0.145 -0.227,0.181 -5.521,4.449 -10.566,9.621 -8.014,8.224 -10.779,13.858 -8.963,18.271 2.419,5.876 11.488,3.115 14.388,2.815 29.131,-3.03 34.19,2.694 38.203,10.864 4.7,9.579 1.1,24.755 1.64,24.733 0.954,-0.032 12.148,-7.689 12.148,-7.689 4.171,-2.501 6.745,-3.104 10.673,-2.043 4.907,1.967 3.467,17.956 4.776,18.823 0.523,0.347 10.837,-10.457 20.375,-11.922 7.43,-1.143 11.377,2.04 13.006,4.451 3.889,5.77 5.572,15.507 6.14,22.901 1.874,24.354 5.569,31.373 7.015,30.593 0.325,-0.175 1.781,-3.238 4.078,-14.579 0,0 0.99,-5.39 5.017,-15.152 l 9.112,-21.092 3.421,-8.423 c 4.435,-10.84 7.364,-17.994 7.956,-24.622 0.87,-9.719 -2.146,-25.288 -3.394,-29.841 l -0.651,-2.402 c -1.959,-7.294 -3.745,-13.309 -9.392,-19.801 -6.595,-7.592 -17.847,-13.95 -26.455,-16.902 -3.21,-1.1 -6.064,-1.838 -8.434,-2.355 z" id="path6" inkscape:connector-curvature="0"/>
	<linearGradient id="SVGID_1_" gradientUnits="userSpaceOnUse" x1="291.832" y1="300.69629" x2="342.10809" y2="111.6585">
		<stop offset="0.01" style="stop-color:#DD6F93" id="stop8"/>
		<stop offset="0.4623" style="stop-color:#8C9ACE" id="stop10"/>
		<stop offset="0.794" style="stop-color:#8C9ACE" id="stop12"/>
		<stop offset="1" style="stop-color:#4B5D94" id="stop14"/>
	</linearGradient>
	<path d="m 263.672,218.999 c 0,0 16.996,10.016 22.923,10.146 5.928,0.134 9.501,-2.019 14.967,-4.314 5.142,-2.158 22.503,-10.922 26.365,-16.743 3.862,-5.824 3.017,-11.168 1.006,-14.355 -2.013,-3.187 -3.396,-4.122 -2.927,-4.318 1.092,-0.453 11.066,1.522 18.311,5.091 9.132,4.502 16.636,9.088 22.273,15.579 5.641,6.487 6.708,12.035 9.026,20.499 2.321,8.464 4.937,21.03 4.263,28.556 -0.671,7.531 -4.768,16.131 -11.123,32 -6.355,15.869 -11.145,26.024 -12.233,33.233 -1.088,7.206 -1.967,15.597 -2.981,15.522 -1.012,-0.068 -2.446,-17.483 -3.142,-25.857 -0.688,-8.257 -3.634,-20.939 -6.827,-25.244 -3.194,-4.302 -8.958,-7.326 -16.543,-5.093 -7.586,2.237 -14.74,8.731 -16.564,9.771 -1.817,1.037 -1.994,2.542 -2.131,-2.168 -0.134,-4.572 0.047,-13.813 -4.565,-14.934 -4.607,-1.116 -8.099,0.272 -12.845,3.455 -4.746,3.187 -8.589,6.059 -9.181,5.557 -0.593,-0.502 2.886,-10.229 -1.2,-20.599 -4.719,-11.988 -13.344,-16.896 -41.163,-14.001 -27.821,2.896 8.093,-25.97 8.093,-25.97 0,0 0.885,-8.636 16.198,-5.813 z" id="path17" style="fill:url(#SVGID_1_)" inkscape:connector-curvature="0"/>
	<path d="m 132.325,166.221 c -0.183,0.012 -18.403,1.73 -28.836,9.471 -10.531,7.81 -20.574,27.715 -22.134,47.822 -0.096,1.205 -0.153,2.405 -0.172,3.598 -0.349,20.64 0.439,26.6 10.283,40.169 0,0 21.534,24.423 23.976,27.748 6.208,8.453 6.301,13.441 7.806,11.936 0.478,-0.477 3.2,-6.683 1.811,-16.854 -1.012,-7.436 -3.374,-15.305 -3.78,-16.93 -2.092,-8.398 -2.744,-17.872 -0.985,-16.792 4.223,2.774 15.408,20.185 15.845,19.991 1.424,-0.633 1.877,-9.059 2.07,-11.532 0.456,-5.884 2.378,-14.904 4.378,-14.004 7.597,2.771 10.752,20.029 11.598,19.622 1.544,-0.741 2.761,-3.379 5.27,-9.077 2.332,-5.3 5.998,-15.983 10.635,-19.147 3.191,-2.18 16.066,2.034 25.189,7.334 0.897,0.519 2.021,2.984 3.015,2.676 0.987,-0.305 1.806,-1.006 2.253,-1.941 1.211,-2.531 11.603,-25.048 4.168,-35.587 -1.964,-2.78 -5.987,-5.921 -14.007,-5.089 l -2.016,2.263 c -13.076,4.678 -19.789,5.578 -30.727,1.148 -10.291,-4.172 -26.117,-14.373 -28.266,-20.797 -2.585,-7.726 0.369,-14.654 2.608,-17.646 1.353,-1.811 2.875,-3.575 5.657,-4.791 3.265,-1.426 3.868,-1.649 3.344,-2.258 -0.522,-0.609 -4.551,-1.636 -8.983,-1.333 z" id="path19" inkscape:connector-curvature="0"/>
	<linearGradient id="SVGID_2_" gradientUnits="userSpaceOnUse" x1="130.4707" y1="283.69339" x2="175.5038" y2="114.369">
		<stop offset="0.01" style="stop-color:#DD6F93" id="stop21"/>
		<stop offset="0.4623" style="stop-color:#8C9ACE" id="stop23"/>
		<stop offset="0.794" style="stop-color:#8C9ACE" id="stop25"/>
		<stop offset="1" style="stop-color:#4B5D94" id="stop27"/>
	</linearGradient>
	<path d="m 127.12,174.274 c -5.294,6.088 -5.193,13.447 -2.411,20.984 2.785,7.536 13.374,11.977 25.44,16.867 12.067,4.891 15.247,10.206 45,0.265 23.081,-7.714 2.049,36.32 2.049,36.32 0,0 -21.48,-12.449 -28.615,-6.882 -7.139,5.567 -13.729,26.627 -14.462,24.821 -0.734,-1.806 -6.451,-18.283 -12.604,-17.888 -6.153,0.398 -5.946,24.024 -5.946,24.024 0,0 -12.427,-20.203 -16.616,-18.779 -4.192,1.424 -1.37,13.887 0.186,20.13 1.557,6.243 4.708,24.636 4.214,27.222 -0.491,2.586 -0.791,-1.43 -7.621,-11.593 -3.469,-5.163 -5.861,-7.752 -17.312,-21.758 C 86.974,254 87.482,246.579 87.806,227.368 c 0.325,-19.212 10.101,-36.438 20.304,-45.12 6.431,-5.468 17.57,-8.262 19.01,-7.974 z" id="path30" style="fill:url(#SVGID_2_)" inkscape:connector-curvature="0"/>
	<path d="m 308.479,296.564 c 0,0 21.24,-24.295 27.576,-33.539 6.339,-9.247 11.025,-22.511 12.083,-37.3 1.053,-14.795 -6.772,-31.842 -6.772,-31.842 l -6.767,2.758 c 0,0 7.072,10.661 8.774,26.825 1.05,9.983 -4.296,25.932 -7.73,32.8 -3.437,6.868 -23.746,33.999 -28.214,39.607" id="path32" inkscape:connector-curvature="0"/>
	<path d="m 281.314,286.309 c 0,0 27.882,-27.705 34,-35.438 6.115,-7.738 16.73,-24.646 17.988,-30.225 1.26,-5.578 4.317,-16.19 2.7,-21.407 -1.62,-5.216 -4.141,-2.698 -4.141,-2.698 l -1.617,6.298 c 0,0 0.537,12.59 -2.338,19.788 -2.88,7.195 -16.19,27.704 -19.429,31.481 -3.24,3.775 -26.624,28.422 -28.064,33.28" id="path34" inkscape:connector-curvature="0"/>
	<path d="m 128.291,172.39 c -2.504,0.73 -20.435,14.038 -22.574,29.713 -1.432,10.492 30.402,49.731 30.402,71.699 l -1.058,1.323 c 0,0 -1.587,-17.203 -7.411,-27.265 -5.823,-10.058 -26.28,-38.537 -24.428,-47.539 1.854,-8.998 8.404,-20.862 21.881,-30.571" id="path36" inkscape:connector-curvature="0"/>
	<path d="m 154.879,266.599 c 0,0 3.938,-12.67 -10.616,-28.25 -14.554,-15.583 -21.19,-29.898 -21.725,-33.099 -0.3,-1.803 -2.381,-3.78 -2.804,-8.795 -0.33,-3.898 -0.469,-15.095 7.954,-22.801 0,0 1.377,-2.752 -1.874,0.222 -3.249,2.972 -7.618,8.531 -8.696,17.063 -0.654,5.177 0.426,8.814 1.462,13.851 3.595,17.464 17.634,27.396 23.97,34.585 6.333,7.19 12.498,14.896 11.813,28.938" id="path38" inkscape:connector-curvature="0"/>
	<path d="m 259.534,219.983 c 0,0 14.602,12.574 27.401,12.163 12.796,-0.415 26.082,-9.034 34.112,-14.847 15.688,-11.352 13.624,-16.101 14.45,-20.022 0,0 23.738,9.289 29.521,17.753 5.776,8.461 11.145,38.189 10.938,45.207 -0.205,7.019 -15.679,46.154 -17.959,53.26 -4.898,15.258 -4.612,30.061 -3.785,27.172 0.823,-2.891 7.089,-27.791 10.807,-35.432 3.715,-7.637 16.925,-42.935 16.925,-42.935 0,0 0.826,-11.147 -1.446,-21.262 -2.27,-10.114 -10.732,-31.377 -10.732,-31.377 0,0 -23.738,-23.327 -44.796,-21.676 l -0.204,0.62 c 0,0 10.318,9.702 1.649,19.197 -8.668,9.494 -28.898,19.818 -37.777,20.438 -8.875,0.616 -22.704,-11.978 -31.375,-10.736" id="path40" inkscape:connector-curvature="0"/>
	<path d="m 407.291,153.372 -339.728,72.13 c -1.669,0.352 -2.566,0.349 -2.215,2.016 l 1.457,6.898 c 0.169,0.802 0.649,1.5 1.334,1.95 0.688,0.444 1.238,-1.105 2.04,-1.274 L 408.83,164.64 c 0.805,-0.169 2.1,-0.054 2.545,-0.741 0.45,-0.687 0.605,-1.522 0.438,-2.324 l -1.456,-6.9 c -0.354,-1.671 -1.396,-1.655 -3.066,-1.303 z" id="path42" inkscape:connector-curvature="0"/>
	<polygon points="69.827,233.777 408.789,162.213 407.332,155.31 68.373,226.882 " id="polygon44" style="fill:#a7a9ac"/>
	<path d="m 81.521,213.71 -60.744,27.312 c -1.375,0.587 -3.172,1.135 -2.836,2.595 0.341,1.456 2.479,0.989 3.974,0.916 l 71.092,-2.142 c 0.813,-0.038 1.579,-0.397 2.127,-1.003 l 11.2,-12.283 c 1.151,-1.257 1.061,-3.21 -0.199,-4.358 -1.263,-1.151 -3.216,-1.061 -4.364,0.202 0,0 -8.884,9.731 -10.343,11.336 -1.854,0.096 -33.86,1.704 -53.341,2.681 17.203,-7.343 43.688,-18.646 44.97,-19.191 1.697,0.353 16.391,3.415 16.391,3.415 1.672,0.347 3.306,-0.723 3.655,-2.395 0.349,-1.672 -0.723,-3.306 -2.395,-3.655 l -17.342,-3.614 c -0.618,-0.13 -1.262,-0.064 -1.845,0.184 z" id="path46" inkscape:connector-curvature="0"/>
	<polyline points="100.076,220.164 82.737,216.55 20.954,242.92 92.851,239.306 104.053,227.029  " id="polyline48" style="fill:#ffffff"/>
	<linearGradient id="SVGID_3_" gradientUnits="userSpaceOnUse" x1="56.776901" y1="229.64841" x2="100.4422" y2="228.8779">
		<stop offset="0" style="stop-color:#C7EAFB" id="stop50"/>
		<stop offset="0.5477" style="stop-color:#BACDEA" id="stop52"/>
		<stop offset="1" style="stop-color:#0072BC" id="stop54"/>
	</linearGradient>
	<polygon points="101.421,222.482 101.003,221.765 91.476,218.375 82.737,216.55 20.954,242.92 21.551,242.891 85.091,227.689 " id="polygon57" style="fill:url(#SVGID_3_)"/>
	<polygon points="82.737,216.55 20.954,242.92 21.551,242.891 83.978,217.968 96.656,220.979 98.985,223.263 101.421,222.482 101.003,221.765 91.476,218.375 " id="polygon59" style="fill:#ffffff"/>
	<polyline points="137.553,215.066 349.802,170.16 348.855,167.796 121.952,215.541  " id="polyline61" style="fill:#ffffff"/>
	<path d="m 338.899,103.352 c -1.012,0.348 -2.968,1.281 -2.828,1.816 0.125,0.485 1.44,0.416 2.632,0.459 21.791,0.794 47.39,12.851 55.142,18.488 4.836,3.518 7.113,7.111 5.032,7.667 -0.216,0.076 -0.595,0.168 -1.342,0.151 -4.089,-0.09 -20.694,-3.786 -31.545,-6.729 -1.241,-0.335 -2.845,-0.64 -3.278,-0.231 -0.467,0.438 1.271,1.622 2.092,2.067 10.813,5.878 27.304,16.147 30.448,19.451 -1.121,1.624 -8.557,4.297 -13.502,5.122 -4.378,0.306 -12.127,-5.474 -20.244,-11.604 -0.984,-0.743 -3.336,-2.386 -3.701,-1.912 -0.24,0.313 0.578,2.204 0.856,2.683 2.747,4.775 5.575,10.048 7.571,13.371 1.148,2.572 -3.414,3.988 -8.215,4.134 -4.798,0.145 -10.073,-3.017 -10.016,-1.806 0.049,1.014 1.2,1.831 -0.024,5.136 -0.587,1.583 -3.26,3.074 -4.493,3.535 -1.252,0.468 -1.912,1.848 -1.483,3.111 l 2.518,7.417 c 0.39,1.149 1.541,1.756 2.747,1.646 12.538,-1.161 17.394,6.704 17.947,6.52 0.867,-0.287 -0.126,-4.301 2.073,-6.167 4.132,-2.374 12.492,0.944 14.601,2.886 3.196,2.427 11.319,10.866 17.094,17.207 1.08,1.188 2.738,3.271 3.232,3.083 1.031,-0.396 -0.391,-3.453 -0.573,-3.917 -4.978,-12.825 -5.026,-17.964 -5.026,-20.056 0,-0.008 0,-0.01 0,-0.016 17.072,-4.57 28.839,2.431 28.959,2.505 0.344,0.211 0.744,0.341 1.146,0.366 0.098,0.006 9.993,0.652 19.881,0.888 20.28,0.482 22.244,-1.01 22.926,-3.342 0.271,-0.922 0.319,-2.686 -2.376,-4.164 -7.729,-4.248 -8.104,-10.074 -8.581,-17.451 l -0.079,-1.215 c -0.635,-9.383 -8.496,-11.26 -8.881,-11.385 -1.009,-0.324 -3.642,-0.641 -3.917,-0.256 -0.316,0.442 2.976,2.355 0.374,3.682 -0.731,0.668 -4.279,1.173 -7.938,0.175 -6.232,-1.699 -16.529,-6.251 -18.84,-10.623 -0.562,-1.066 -0.425,-1.776 -0.275,-2.218 0.229,-0.663 0.619,-1.072 1.299,-1.362 3.219,-1.381 10.785,-0.153 14.647,1.614 1.107,0.504 3.415,1.255 2.855,0.177 -0.027,-0.056 -2.329,-3.841 -3.224,-4.663 -0.941,-0.862 -20.507,-19.711 -49.823,-26.404 -29.232,-6.673 -45.153,-0.082 -45.868,0.164 z" id="path63" inkscape:connector-curvature="0"/>
	<path d="m 422.869,122.244 c 0,0 -16.467,-6.382 -18.936,-3.294 -2.471,3.087 -13.174,-17.908 -61.134,-15.025 0.001,0 38.697,-8.235 80.07,18.319 z" id="path65" inkscape:connector-curvature="0" style="fill:#a7a9ac"/>
	<path d="m 369.558,127.389 c 0,0 21.417,5.558 28.405,5.968 6.996,0.412 3.707,-4.323 3.707,-4.323 0,0 3.497,4.528 1.645,5.764 -1.852,1.236 -7.207,2.883 -33.757,-7.409 z" id="path67" inkscape:connector-curvature="0" style="fill:#a7a9ac"/>
	<path d="m 362.766,142.825 c 0,0 12.352,8.851 12.556,10.293 0.204,1.439 -0.823,4.526 -0.823,4.526 0,0 22.437,-7.82 24.493,-9.468 2.06,-1.646 -0.616,-3.704 -0.616,-3.704 0,0 1.028,2.881 -7.822,5.762 -8.849,2.883 -11.937,3.088 -11.937,3.088 z" id="path69" inkscape:connector-curvature="0" style="fill:#a7a9ac"/>
	<path d="m 349.186,157.297 c 0,0 5.308,4.182 8.123,4.343 2.812,0.16 8.359,-4.101 8.359,-4.101 0,0 -8.278,4.744 -16.482,-0.242 z" id="path71" inkscape:connector-curvature="0" style="fill:#a7a9ac"/>
	<path d="m 338.25,168.153 c 0,0 0.066,-4.087 3.063,-4.887 2.998,-0.799 6.993,0.042 8.99,5.24 1.999,5.196 1.991,8.531 -0.406,10.597 -2.872,2.471 -6.92,0.739 -8.052,-0.793 l 0.063,-1.94 c 0,0 2.315,-1.366 1.334,-4.6 -0.963,-3.164 -3.721,-2.143 -3.721,-2.143" id="path73" inkscape:connector-curvature="0"/>
	<path d="m 345.806,165.178 c 0,0 -2.812,0 -3.213,2.01 0,0 -2.253,-0.161 -3.055,0.644 0,0 0.079,-2.976 2.732,-3.298 2.652,-0.322 3.536,0.644 3.536,0.644 z" id="path75" inkscape:connector-curvature="0" style="fill:#a7a9ac"/>
	<path d="m 366.17,175.754 c 0,0 6.98,-2.691 12.446,0.335 5.464,3.026 21.61,20.938 21.61,20.938 0,0 -12.781,-16.06 -13.706,-18.752 -0.925,-2.69 -0.338,-7.82 -0.338,-7.82 0,0 -4.962,2.439 -9.165,2.186 -4.205,-0.251 -9.753,-1.261 -10.847,3.113 z" id="path77" inkscape:connector-curvature="0" style="fill:#808285"/>
	<path d="m 345.822,178.529 c 0,0 4.285,-1.684 2.855,-5.889 0,0 1.853,-0.672 2.526,0.925 0,0 10.258,-0.587 12.612,6.729 0,0 -2.104,-4.709 -13.035,-4.456 0.001,0 -0.924,3.697 -4.958,2.691 z" id="path79" inkscape:connector-curvature="0" style="fill:#a7a9ac"/>
	<path d="m 429.527,145.808 c 0,0 12.41,7.934 19.126,4.883 6.712,-3.052 0.813,-6.104 0.813,-6.104 0,0 1.018,3.458 -3.865,4.273 -4.885,0.813 -9.768,-0.815 -16.074,-3.052 z" id="path81" inkscape:connector-curvature="0" style="fill:#a7a9ac"/>
	<path d="m 433.157,161.772 c 0,0 -12.814,0.969 -17.351,3.993 -3.306,2.203 -1.928,4.958 -2.618,4.684 -0.688,-0.277 -0.823,-0.414 -1.238,-0.826 -0.412,-0.416 -2.064,-5.097 -8.677,-5.234 -6.608,-0.138 5.234,-2.066 8.54,-1.515 0,0 0.62,-2.639 21.344,-1.102 z" id="path83" inkscape:connector-curvature="0" style="fill:#808285"/>
	<path d="m 439.098,113.993 c -0.616,0.803 1.427,3.182 2.242,4.036 0.229,0.239 21.368,24.871 27.241,39.553 2.962,7.399 3.526,11.018 3.526,12.7 0,0.701 -0.09,1.005 -0.152,1.172 -0.772,0.179 -4.858,0.479 -18.513,-7.605 -0.371,-0.221 -0.771,-0.383 -1.189,-0.487 -0.493,-0.124 -12.345,-2.961 -32.821,2.772 -1.734,0.485 -2.997,1.975 -3.21,3.764 -0.213,1.787 -2.4,4.89 -0.829,5.768 0.262,0.147 28.195,14.044 36.271,56.999 8.237,43.792 -12.17,118.521 -75.388,153.437 -1.88,1.042 -5.75,1.808 -4.572,3.605 0.66,1.007 4.667,0.78 6.809,0.589 0.744,-0.067 17.893,-1.862 42.501,-13.422 22.558,-10.592 57.825,-31.311 86.302,-72.585 19.322,-28.001 23.684,-54.938 15.773,-88.246 -10.82,-45.583 -49.798,-85.611 -78.325,-101.22 -1.921,-1.052 -4.329,-2.568 -5.666,-0.83 z" id="path85" inkscape:connector-curvature="0"/>
	<path d="m 444.807,164.952 c -4.211,-0.371 -11.598,-0.244 -22.658,2.766 -1.222,0.331 -3.603,1.321 -1.517,2.7 0,0 27.803,15.273 36.417,61.085 8.616,45.815 -18.403,126.871 -81.057,157.02 0,0 69.701,-6.263 123.738,-84.577 54.039,-78.315 -15.272,-165.637 -56.778,-188.347 0,0 23.495,24.667 29.761,40.331 6.266,15.662 8.221,29.368 -21.537,11.749 0,0 -4.067,-2.524 -6.369,-2.727 z" id="path87" inkscape:connector-curvature="0" style="fill:#ffffff"/>
	<linearGradient id="SVGID_4_" gradientUnits="userSpaceOnUse" x1="377.25491" y1="251.9863" x2="519.52252" y2="251.9863">
		<stop offset="0" style="stop-color:#FFFFFF" id="stop89"/>
		<stop offset="1" style="stop-color:#000000" id="stop91"/>
	</linearGradient>
	<path d="m 499.73,303.945 c 54.039,-78.315 -15.272,-165.637 -56.778,-188.347 0,0 23.495,24.667 29.761,40.331 6.266,15.662 8.221,29.368 -21.537,11.749 0,0 -4.066,-2.523 -6.369,-2.727 -2.574,-0.228 -6.344,-0.263 -11.409,0.426 2.182,2.942 6.232,6.596 13.698,9.275 14.66,5.266 25.942,7.521 25.187,20.306 -0.75,12.781 -5.262,18.795 6.77,28.944 12.032,10.152 15.04,21.055 8.273,30.827 -6.771,9.776 -15.414,13.537 -12.411,22.934 2.908,9.08 -27.164,95.668 -97.659,110.711 9.652,-1.289 72.706,-12.301 122.474,-84.429 z" id="path94" style="fill:url(#SVGID_4_)" inkscape:connector-curvature="0"/>
	<path d="m 472.713,155.93 c 2.046,5.114 3.62,10.012 3.794,13.687 0.068,-5.77 -2.113,-26.369 -32.767,-53.572 -0.259,-0.147 -0.526,-0.304 -0.788,-0.445 0,-10e-4 23.495,24.666 29.761,40.33 z" id="path96" inkscape:connector-curvature="0" style="fill:#ffffff"/>
	<path d="m 213.528,237.124 c -10.54,2.916 -27.62,8.475 -28.326,15.891 -0.532,5.605 -3.517,12.046 -5.66,16.091 -1.724,3.262 -5.368,7.656 -5.163,9.606 0.464,4.492 2.837,10.231 8.082,22.874 l 2.188,5.869 c 1.617,4.787 6.977,20.776 8.155,25.634 -1.249,1.291 -8.774,5.905 -8.783,6.803 0,0.011 0.879,1.154 1.62,2.09 0.952,1.203 2.671,3.191 3.944,5.455 -3.289,1.156 -9.486,2.195 -12.454,2.531 -1.246,0.142 -1.427,0.605 -1.091,1.923 0.052,0.199 1.366,4.351 2.787,7.566 -3.139,1.304 -10.7,5.174 -25.235,7.021 -8.235,-3.974 -21.987,-11.09 -23.438,-11.403 l -0.234,-0.053 c -0.723,-0.166 -2.316,-0.725 -3.685,0.132 -1.312,0.817 -1.754,2.687 -1.969,3.649 -0.633,2.779 1.459,12.462 2.52,16.122 0.966,3.339 7.61,13.181 8.172,14.116 0.553,0.927 0.19,1.934 1.271,1.937 l 48.635,0.303 c 0.153,0 -0.771,-4.343 -0.619,-4.361 0,0 18.531,-1.602 20.796,-1.935 1.05,0.788 4.104,5.076 4.104,5.076 0.188,0.14 0.391,0.257 0.601,0.352 0,0 17.885,2.019 19.287,2.644 0.91,1.282 8.87,22.14 8.87,22.14 0.212,0.303 0.479,0.563 0.788,0.772 l 10.206,6.903 c 0.511,0.347 1.113,0.532 1.729,0.532 0.115,0 11.573,0 23.054,-0.791 21.021,-1.448 25.086,-4.694 25.898,-8.461 1.135,-5.275 4.659,-27.08 3.304,-29.56 -1.168,-2.144 -16.712,-5.101 -30.88,-1.323 -8.406,-4.628 -12.001,-10.31 -13.67,-12.754 0.843,-2.089 2.217,-7.621 1.849,-8.196 -1.094,-1.716 -8.703,-3.938 -10.195,-4.479 0.537,-0.87 2.814,-6.762 2.861,-7.212 0.014,-0.109 0.019,-0.219 0.019,-0.327 0,-0.745 -0.229,-1.539 -0.728,-2.108 -0.415,-0.473 -2.662,-1.402 -8.552,-4.154 -9.514,-15.026 -13.408,-39.21 -14.508,-44.349 3.017,-2.962 8.54,-8.971 8.799,-13.534 0.012,-0.12 0.014,-0.242 0.014,-0.368 0,-3.483 -2.479,-7.76 -7.176,-17.762 -0.736,-1.566 -3.252,-6.361 -3.254,-6.536 0.002,0.012 11.178,-16.695 11.595,-17.737 0.363,-0.902 -0.731,-2.452 -1.238,-3.281 -0.507,-0.832 -1.375,-1.375 -2.346,-1.47 l -20.828,-1.976 c -0.374,-0.039 -0.753,-0.003 -1.116,0.098 z" id="path98" inkscape:connector-curvature="0"/>
	<path d="m 235.18,242.077 c -0.256,0.644 -7.828,15.146 -8.856,16.944 -1.025,1.797 -0.9,2.438 -0.385,4.235 0.513,1.798 9.113,18.229 8.856,22.722 -0.256,4.495 -9.099,12.672 -9.099,12.672 0,0 4.476,21.347 7.302,30.203 2.825,8.856 6.805,15.659 7.699,16.172 0.9,0.516 7.703,4.367 8.604,5.396 0,0 -0.56,5.231 -2.259,8.373 0,0 7.231,3.459 9.369,6.225 0,0 -0.251,4.716 -0.564,6.225 0,0 6.915,10.814 14.334,15.719 0,0 5.91,-2.389 15.781,-1.696 9.872,0.69 11.317,1.32 11.696,2.01 0.377,0.693 1.066,20.247 -0.313,26.66 -1.386,6.415 -46.716,6.377 -46.716,6.377 L 240.422,413.411 227.213,394.795 211,387.59 l -3.601,-2.703 -22.52,3.303 -48.636,-0.3 c 0,0 -5.27,-8.8 -6.492,-13.073 -1.219,-4.271 -2.365,-12.662 -1.983,-14.342 0.382,-1.678 0.917,-1.375 1.983,-1.143 1.069,0.229 15.485,5.72 23.496,9.686 0,0 6.178,-0.838 12.894,-2.897 6.713,-2.059 15.103,-5.566 15.332,-5.948 0,0 -2.289,-4.883 -2.057,-7.4 0,0 10.067,-3.128 13.196,-4.5 0,0 -3.205,-6.486 -5.112,-8.161 0,0 5.949,-5.038 7.092,-6.792 0,0 -5.032,-20.978 -7.015,-26.851 -1.983,-5.878 -8.238,-23.419 -8.47,-25.863 -0.229,-2.44 -0.379,-3.813 1.681,-7.702 2.059,-3.893 6.178,-12.741 6.789,-19.148 0.607,-6.407 26.773,-13.654 26.773,-13.654 z" id="path100" inkscape:connector-curvature="0" style="fill:#dd6f93"/>
	<path d="m 191.191,249.455 c -2.084,1.416 -3.478,2.878 -3.613,4.299 -0.611,6.407 -4.73,15.256 -6.789,19.148 -2.06,3.89 -1.91,5.262 -1.681,7.702 0.073,0.783 0.761,3.104 1.732,6.094 3.434,1.342 7.001,2.419 10.604,3.421 -9.546,-10.414 -6.627,-27.541 -0.253,-40.664 z" id="path102" inkscape:connector-curvature="0" style="fill:#f8cfc2"/>
	<path d="m 207.399,384.887 3.601,2.703 16.213,7.203 13.209,18.616 10.207,6.903 c 0,0 45.33,0.038 46.716,-6.377 1.38,-6.413 0.69,-25.967 0.313,-26.66 -0.379,-0.689 -1.824,-1.319 -11.696,-2.01 -9.871,-0.692 -15.781,1.696 -15.781,1.696 -7.419,-4.904 -14.334,-15.719 -14.334,-15.719 0.313,-1.509 0.564,-6.225 0.564,-6.225 -2.138,-2.766 -9.369,-6.225 -9.369,-6.225 1.699,-3.142 2.259,-8.373 2.259,-8.373 -0.9,-1.028 -7.703,-4.88 -8.604,-5.396 -0.895,-0.513 -4.874,-7.315 -7.699,-16.172 -2.826,-8.856 -7.302,-30.203 -7.302,-30.203 0,0 8.843,-8.177 9.099,-12.672 0.14,-2.45 -2.354,-8.447 -4.734,-13.69 -3.707,16.45 -22.716,21.616 -36.209,20.078 -6.083,-0.692 -10.12,-2.747 -12.738,-4.822 2.07,6.328 5.172,15.097 6.465,18.924 1.982,5.873 7.015,26.851 7.015,26.851 -1.143,1.754 -7.092,6.792 -7.092,6.792 1.907,1.675 5.112,8.161 5.112,8.161 -3.129,1.372 -13.196,4.5 -13.196,4.5 -0.232,2.518 2.057,7.4 2.057,7.4 -0.229,0.382 -8.619,3.89 -15.332,5.948 -6.716,2.06 -12.894,2.897 -12.894,2.897 -8.011,-3.966 -22.426,-9.457 -23.496,-9.686 -1.066,-0.232 -1.601,-0.535 -1.983,1.143 -0.382,1.68 0.764,10.07 1.983,14.342 1.222,4.273 6.492,13.073 6.492,13.073 l 48.636,0.3 z" id="path104" inkscape:connector-curvature="0" style="fill:#a7a9ac"/>
	<path d="m 213.861,390.15 c 0,0 -0.969,-12.001 -0.263,-20.159 0.712,-8.158 1.684,-8.396 0.797,-12.474 -0.887,-4.08 -8.336,-40.797 -10.82,-51.792 h -4.612 c 0,0 3.017,6.208 4.789,13.126 1.776,6.917 7.864,33.132 8.216,36.503 0.354,3.369 -0.589,6.418 -0.943,8.194 -0.354,1.772 -2.482,15.43 -0.529,26.425" id="path106" inkscape:connector-curvature="0"/>
	<path d="m 272.308,386.332 c -1.009,0.281 -7.307,2.248 -10.79,5.003 -3.486,2.755 1.8,-4.889 8.993,-7.646" id="path108" inkscape:connector-curvature="0"/>
	<path d="m 256.152,371.729 c -0.873,-1.325 -1.956,-3.391 -2.315,-4.647 -0.357,-1.258 1.056,0.245 4.827,4.555" id="path110" inkscape:connector-curvature="0"/>
	<path d="m 248.848,357.556 c -3.3,-0.861 -5.104,-2.113 -4.53,-1.273 0.57,0.837 1.159,1.612 2.313,2.28 0.156,0.09 0.737,0.341 0.896,0.428" id="path112" inkscape:connector-curvature="0"/>
	<path d="m 242.086,345.765 c -0.478,-0.237 -3.287,-1.702 -5.387,-2.414 -2.101,-0.715 1.901,-0.677 6.219,0.668" id="path114" inkscape:connector-curvature="0"/>
	<path d="m 181.269,360.306 c 0.592,-0.284 3.642,-2.16 3.227,-2.117 -0.411,0.047 -3.36,0.767 -4.462,0.63" id="path116" inkscape:connector-curvature="0"/>
	<path d="m 194.593,333.318 c 0.208,0.832 0.354,2.867 0.257,3.639 -0.096,0.777 -0.581,-1.063 -2.081,-3.824" id="path118" inkscape:connector-curvature="0"/>
	<path d="m 197.681,303.929 c 2.507,0.695 5.352,0.813 7.561,0.665 2.21,-0.145 4.509,-0.87 4.509,-0.665 0,0.201 -1.453,1.222 -2.531,1.655 -1.074,0.437 -4.361,0.759 -6.05,0.759 -1.686,0 -3.316,-0.467 -3.928,-0.903 -0.608,-0.434 -0.608,-1.511 -0.551,-1.772 0.06,-0.264 0.466,0.113 0.99,0.261 z" id="path120" inkscape:connector-curvature="0"/>
	<path d="m 265.909,388.214 2.676,-2.4 c -6.784,-5.261 -12.738,-14.57 -12.738,-14.57 0.313,-1.509 0.564,-6.225 0.564,-6.225 -2.138,-2.766 -9.369,-6.225 -9.369,-6.225 1.699,-3.142 2.259,-8.373 2.259,-8.373 -0.9,-1.028 -7.703,-4.88 -8.604,-5.396 -0.895,-0.513 -4.874,-7.315 -7.699,-16.172 -2.826,-8.856 -7.302,-30.203 -7.302,-30.203 0,0 8.843,-8.177 9.099,-12.672 0.038,-0.707 -0.145,-1.713 -0.475,-2.908 l -16.884,5.098 c -7.258,3.879 -16.237,5.035 -23.585,4.198 -1.935,-0.221 -3.642,-0.589 -5.183,-1.042 l -1.64,1.26 c 0,0 -1.394,4.422 0.701,6.98 2.095,2.558 11.865,37.925 11.865,37.925 0,0 -7.91,3.726 -6.98,3.957 0.934,0.235 5.352,6.05 5.352,6.05 L 186.8,354.01 c 0,0 1.674,3.147 5.433,1.871 0.196,-0.068 0.404,-0.147 0.614,-0.24 4.189,-1.862 -24.663,16.287 -33.735,17.452 l -8.379,1.396 c 0,0 -15.125,-7.682 -16.055,-6.983 -0.93,0.698 8.145,17.687 8.145,17.687 0,0 35.832,3.723 46.535,1.394 10.703,-2.327 21.406,-6.514 21.406,-6.514 l 2.559,-20.244 -11.633,-54.214 c 0,0 9.074,0.231 12.097,-1.86 3.027,-2.095 -4.885,5.117 -4.885,5.117 l 5.586,1.164 -6.281,1.86 c 0,0 5.127,35.737 7.454,36.905 2.324,1.159 4.498,1.12 4.498,1.12 0,0 -4.203,10.035 -3.273,10.733 0.933,0.695 -1.004,14.298 2.021,18.253 0,0 11.172,6.983 11.636,6.748 0.464,-0.231 5.583,11.868 13.96,16.055 0,0 4.421,-6.281 10.008,-8.145 0,0 -0.235,13.963 3.488,15.823 3.723,1.863 33.274,-1.86 33.274,-1.86 l -3.724,-17.683 c 0.001,10e-4 -13.031,-4.418 -21.64,-1.631 z" id="path122" inkscape:connector-curvature="0"/>
	<path d="m 243.385,370.414 c 0,0 13.024,4.973 18.6,8.957 -3.623,-4.195 -6.138,-8.128 -6.138,-8.128 0.313,-1.509 0.564,-6.225 0.564,-6.225 -2.138,-2.766 -9.369,-6.225 -9.369,-6.225 1.699,-3.142 2.259,-8.373 2.259,-8.373 -0.9,-1.028 -7.703,-4.88 -8.604,-5.396 -0.895,-0.513 -4.874,-7.315 -7.699,-16.172 -2.826,-8.856 -7.302,-30.203 -7.302,-30.203 0,0 8.843,-8.177 9.099,-12.672 0.038,-0.707 -0.145,-1.713 -0.475,-2.908 l -14.412,4.354 c 0.605,1.282 2.7,5.968 2.7,9.443 0,4.059 10.507,42.979 11.461,45.845 l -4.059,0.48 c 0,0 12.894,3.104 15.28,8.117 l -4.536,9.075 c 0,0 9.313,0.954 10.984,4.775 1.671,3.821 -8.353,5.256 -8.353,5.256 z" id="path124" inkscape:connector-curvature="0" style="fill:#a7a9ac"/>
	<path d="m 229.092,270.974 c -6.483,15.899 -28.148,15.349 -34.321,14.71 -11.767,-1.217 -14.337,-6.623 -15.493,-9.389 -0.365,-0.875 -2.204,2.545 -2.204,2.965 0,1.801 2.851,9.594 2.987,9.743 0.3,0.338 7.79,8.265 26.335,5.774 21.595,-2.899 26.116,-17.953 26.338,-18.583 0.134,-0.391 0.723,-0.262 0.569,-0.646 l -1.844,-4.687 c -0.259,-0.657 -2.1,-0.542 -2.367,0.113 z m 0.548,4.711 c 0.071,0.177 0.147,0.373 0.191,0.485 -1.118,2.559 -6.757,13.177 -24.155,15.512 -15.145,2.035 -21.78,-3.366 -22.866,-4.37 -0.414,-1.061 -0.963,-2.518 -1.181,-3.21 2.602,1.994 6.674,3.947 12.959,4.596 6.298,0.652 26.318,1.423 35.052,-13.013 z" id="path126" inkscape:connector-curvature="0"/>
	<path d="m 178.997,278.313 c 0,0 1.751,7.032 15.768,8.663 11.639,1.355 29.117,-0.852 35.083,-15.482 l 1.849,4.689 c 0,0 -5.005,14.421 -25.792,17.214 -17.852,2.397 -24.57,-5.106 -24.57,-5.106 0,0 -1.219,-3.085 -1.459,-4.001 -0.24,-0.92 -1.38,-3.941 -0.996,-5.922" id="path128" inkscape:connector-curvature="0" style="fill:#ffffff"/>
	<path d="m 188.167,281.502 v 0 c -3.202,0.45 -2.496,5.248 -1.98,8.75 l 0.142,1.026 c 0.219,1.937 0.652,3.87 2.321,4.898 1.727,1.059 10.406,1.707 11.655,1.765 l 0.368,0.021 c 4.146,0.202 6.225,0.306 7.081,-1.538 0.73,-1.579 0.414,-9.675 0.409,-9.751 -0.123,-1.386 -0.903,-3.772 -4.746,-4.154 -3.082,-0.31 -13.295,-1.295 -15.25,-1.017 z" id="path130" inkscape:connector-curvature="0"/>
	<path d="m 188.511,283.215 c 1.724,-0.242 12.443,0.786 14.838,1.025 2.477,0.246 2.989,1.384 3.085,2.482 0.096,1.103 0.152,8.011 -0.259,8.903 -0.418,0.889 -2.218,0.769 -5.89,0.592 -3.671,-0.183 -9.903,-0.955 -10.793,-1.5 -0.884,-0.543 -1.238,-1.719 -1.442,-3.532 -0.205,-1.814 -1.416,-7.706 0.461,-7.97 z" id="path132" inkscape:connector-curvature="0" style="fill:#ffffff"/>
	<path d="m 190.438,286.78 c 0,1.069 0.251,2.749 0.347,3.406 l 0.14,0.993 c 0.095,0.867 0.21,1.249 0.278,1.416 1.14,0.318 5.226,0.854 8.133,0.998 l 0.314,0.014 c 1.004,0.049 2.013,0.098 2.687,0.087 0.058,-0.887 0.082,-2.229 0.082,-3.434 0,-1.116 -0.022,-2.104 -0.05,-2.455 0,0 -0.002,-0.024 -0.008,-0.044 -0.073,-0.038 -0.251,-0.111 -0.731,-0.158 -4.31,-0.434 -9.107,-0.826 -11.183,-0.884 0,0.025 -0.009,0.034 -0.009,0.061 z" id="path134" inkscape:connector-curvature="0"/>
	<path d="m 211.352,378.682 c -3.407,1.587 -12.714,5.349 -19.947,6.985 -0.943,0.212 -2.414,2.315 -2.01,3.196 0.709,1.547 1.514,4.059 1.307,7.25 -0.058,0.881 -0.273,2.3 0.33,2.946 0.603,0.648 1.969,0.469 2.853,0.477 l 21.254,0.131 c 0.949,0.006 1.849,-0.406 2.463,-1.129 0.616,-0.72 0.884,-1.672 0.729,-2.607 l -6.643,-13.987 c -0.162,-0.988 0.575,-3.685 -0.336,-3.262 z m -88.707,3.801 c -1.307,4.561 1.29,12.515 1.822,14.063 0.357,1.034 1.219,1.819 2.286,2.076 4.583,1.104 22.599,1.871 33.842,1.999 4.053,0.044 9.497,-0.058 16.177,-0.306 0.753,-0.03 1.468,-0.319 2.027,-0.818 1.95,-1.745 4.729,-6.03 7.722,-9.967 0.736,-0.971 1.036,-0.897 0.499,-1.991 -0.03,-0.06 -0.063,-0.114 -0.099,-0.166 -0.603,-0.897 -1.979,-0.679 -3.131,-0.685 -3.213,-0.017 -15.615,-0.849 -38.407,-2.501 -8.96,-0.649 -18.72,-3.898 -18.802,-3.917 -1.7,-0.465 -3.454,0.522 -3.936,2.213 z" id="path136" inkscape:connector-curvature="0"/>
	<path d="m 215.159,396.454 -2.455,-14.857 c -3.849,1.79 -13.4,4.346 -20.392,5.925 0.838,1.822 1.847,4.907 1.593,8.802 z m -89.427,-13.087 c -1.091,3.816 1.773,12.133 1.773,12.133 3.952,0.954 21.131,1.772 33.127,1.909 4.634,0.052 10.528,-0.099 16.019,-0.303 1.82,-1.629 4.651,-4.413 7.482,-8.145 -4.839,-0.025 -31.501,-1.939 -40.543,-2.597 -9.405,-0.678 -17.858,-2.997 -17.858,-2.997 z" id="path138" inkscape:connector-curvature="0" style="fill:#808285"/>
	<path d="m 209.958,379.117 c -1.258,13.153 1.363,19.44 1.835,20.381 0.48,0.963 12.997,1.075 16.412,1.206 5.679,18.681 20.454,29.843 21.109,30.325 0.441,0.33 0.963,0.537 1.508,0.605 12.256,1.552 51.863,0.008 55.78,-3.519 1.868,-1.683 3.39,-6.718 4.53,-14.967 0.155,-1.14 0.42,-3.557 -0.295,-4.069 -0.936,-0.668 -2.498,0.079 -4.143,0.674 -0.071,0.024 -9.192,3.473 -28.272,4.209 -16.646,0.638 -27.377,0.063 -31.16,-0.286 -3.237,-3.418 -13.709,-18.493 -16.052,-22.326 -0.447,-0.73 -0.854,-0.96 -1.691,-1.156 -4.069,-0.949 -15.236,-10.512 -16.889,-12.857 -0.76,-1.083 -2.664,1.707 -2.672,1.78 z" id="path140" inkscape:connector-curvature="0"/>
	<path d="m 212.74,382.36 c 0,0 10.708,8.595 16.534,9.956 0,0 10.687,17.481 16.9,23.504 0,0 14.181,1.552 34.384,0.777 20.204,-0.777 27.391,-3.884 27.391,-3.884 0,0 -1.555,11.265 -3.496,13.013 -1.942,1.749 -37.881,4.664 -53.229,2.72 0,0 -15.733,-11.655 -20.591,-30.885 0,0 -13.698,-0.128 -16.224,-1.099 0,0.001 -3.526,-9.358 -1.669,-14.102 z" id="path142" inkscape:connector-curvature="0" style="fill:#808285"/>
	<path d="m 181.083,388.85 c 5.56,0.523 15.735,-0.744 30.151,-6.811 l -2.397,-2.277 c 0,0 -7.277,4.192 -18.559,6.079 -3.281,0.549 -6.789,0.636 -10.7,0.701" id="path144" inkscape:connector-curvature="0"/>
	<path d="m 183.778,216.148 c -0.712,0.12 -1.279,2.521 -3.854,4.697 -2.037,1.727 -11.535,6.718 -14.187,7.477 -2.411,0.688 -4.781,0.063 -8.619,-1.059 -3.87,-1.126 -11.027,-4.907 -12.094,-5.66 l 0.589,0.663 c -1.094,-1.235 -3.273,-1.803 -4.558,-0.769 l -18.559,14.92 c -0.707,0.567 -1.126,1.412 -1.151,2.318 -0.027,0.905 0.346,1.778 1.02,2.384 0.169,0.149 4.184,3.712 11.903,5.831 7.662,2.108 23.233,-0.397 30.383,-3.218 6.45,-2.542 22.988,-15.311 23.676,-15.709 0.971,-0.564 2.509,3.438 2.509,2.365 0,-0.341 -0.055,-0.682 -0.172,-1.015 0,0 -0.648,-1.866 -0.689,-1.983 -0.036,-0.125 -2.73,-9.085 -2.73,-9.085 -0.453,-1.486 -1.934,-2.409 -3.467,-2.157 z" id="path146" inkscape:connector-curvature="0"/>
	<path d="m 142.992,223.903 c 0.445,0.712 8.881,4.443 13.145,5.688 4.261,1.24 6.216,1.15 9.32,0.265 3.109,-0.89 13.145,-6.571 15.454,-8.527 2.308,-1.952 3.372,-2.13 3.372,-2.13 l 2.754,9.146 0.483,-0.338 c 0,0 -16.38,11.319 -22.683,13.807 -6.307,2.488 -22.645,4.113 -29.75,2.163 -7.103,-1.955 -10.657,-5.152 -10.657,-5.152 z" id="path148" inkscape:connector-curvature="0" style="fill:#dd6f93"/>
	<path d="m 180.911,221.328 c -2.31,1.956 -12.345,7.638 -15.454,8.527 -3.104,0.886 -5.06,0.976 -9.32,-0.265 -4.264,-1.244 -12.7,-4.976 -13.145,-5.688 l -18.562,14.92 c 0,0 0.794,0.706 2.357,1.655 l 15.318,-13.352 c 0.472,0.693 9.052,4.086 13.357,5.155 4.31,1.072 6.26,0.906 9.328,-0.106 3.071,-1.009 12.869,-7.089 15.101,-9.135 2.229,-2.04 3.286,-2.261 3.286,-2.261 l 2.846,8.251 c 0.42,-0.286 0.761,-0.519 1.012,-0.69 l -2.752,-9.143 c 0,0.002 -1.064,0.18 -3.372,2.132 z m 6.124,7.013 0.002,0.003 0.483,-0.338 c 10e-4,0 -0.174,0.123 -0.485,0.335 z" id="path150" inkscape:connector-curvature="0" style="fill:#f8cfc2"/>
	<path d="m 145.021,217.027 -18.556,0.207 c -0.611,0.008 -1.2,0.243 -1.647,0.657 l -15.763,14.579 c -0.363,0.333 -0.614,0.767 -0.729,1.246 -0.076,0.319 -1.809,7.924 2.872,12.338 4.334,4.088 10.578,4.293 10.84,4.301 0.984,0.024 1.879,-0.545 2.294,-1.435 0.098,-0.21 0.111,-0.437 0.147,-0.66 0.442,0.123 0.903,0.237 1.408,0.319 4.446,0.729 10.007,-1.724 10.629,-2.002 0.884,-0.404 1.445,-1.288 1.445,-2.25 0,-0.061 -0.002,-0.123 -0.008,-0.184 -0.011,-0.149 -0.063,-0.286 -0.101,-0.431 1.901,-0.393 3.89,-1.118 5.532,-2.539 1.729,-1.495 2.768,-3.276 3.371,-5.125 0.016,0.002 0.03,0.014 0.046,0.019 1.197,0.271 2.414,-0.379 2.854,-1.527 0.482,-1.255 2.787,-7.717 0.995,-11.729 -1.748,-3.917 -4.138,-5.327 -4.402,-5.475 -0.375,-0.208 -0.801,-0.315 -1.227,-0.309 z" id="path152" inkscape:connector-curvature="0"/>
	<path d="m 110.733,234.284 c 0,0 -1.533,6.484 2.163,9.973 3.699,3.488 9.206,3.628 9.206,3.628 0,0 -2.163,-2.373 -1.184,-4.533 0,0 1.533,2.16 5.368,2.79 3.838,0.624 9.208,-1.816 9.208,-1.816 0,0 -3.699,-1.045 -3.767,-2.788 0,0 6.415,0.908 10.043,-2.233 3.625,-3.137 3.767,-7.878 2.231,-11.228 0,0 3.625,2.096 3.347,5.581 0,0 2.512,-6.558 1.047,-9.833 -1.465,-3.281 -3.347,-4.326 -3.347,-4.326 l -18.553,0.207 z" id="path154" inkscape:connector-curvature="0" style="fill:#ffffff"/>
	<path d="m 137.412,207.916 c -12.143,3.372 -30.628,8.494 -31.788,8.762 0.24,-0.055 0.415,-0.07 0.66,-0.07 -1.74,0 -2.711,1.309 -3.077,1.803 -1.738,2.346 -3.08,6.557 -1.625,11.35 0.338,1.11 2.332,6.737 8.6,8.987 5.436,1.947 10.575,1.456 14.445,0.813 0.136,-0.021 14.347,-3.033 16.996,-6.625 0.663,-0.897 1.893,-2.566 1.683,-15.308 v -0.207 c 0,-0.508 0,-0.952 -1.961,-7.35 -0.51,-1.668 -2.253,-2.623 -3.933,-2.155 z" id="path156" inkscape:connector-curvature="0"/>
	<path d="m 105.368,229.67 c 0.101,0.33 1.533,5.078 6.609,6.897 5.076,1.816 9.958,1.146 12.833,0.666 2.872,-0.475 13.597,-3.541 14.939,-5.36 1.342,-1.819 1.053,-13.122 1.053,-13.6 0,-0.479 -1.819,-6.418 -1.819,-6.418 0,0 -31.701,8.811 -31.987,8.811 -0.289,0 -3.257,3.641 -1.628,9.004 z" id="path158" inkscape:connector-curvature="0" style="fill:#dd6f93"/>
	<path d="m 130.803,193.45 v 0 c -4.522,1.588 -8.118,7.498 -8.265,11.8 -0.098,2.876 0.75,16.441 0.886,18.162 -0.002,-0.035 -0.002,-0.073 -0.005,-0.108 0.03,0.676 0.33,4.126 3.202,5.455 0.036,0.014 0.065,0.027 0.098,0.038 0.589,0.251 5.862,2.364 9.888,0.142 3.309,-1.822 5.823,-5.641 7.64,-8.761 l 0.12,-0.202 c 1.473,-2.523 3.546,-4.983 2.905,-9.086 -0.611,-3.916 -2.624,-13.967 -5.813,-15.844 -2.166,-1.274 -5.943,-3.254 -10.656,-1.596 z" id="path160" inkscape:connector-curvature="0"/>
	<path d="m 127.969,225.84 c 0,0 4.31,1.819 7.089,0.286 2.777,-1.53 5.073,-5.267 6.416,-7.566 1.342,-2.296 3.256,-5.46 2.776,-8.522 -0.477,-3.066 -2.392,-11.876 -4.021,-12.835 -1.628,-0.957 -4.98,-2.489 -8.523,-1.244 -3.543,1.244 -6.225,4.979 -6.323,7.756 -0.095,2.781 1.247,19.442 1.247,19.442 0,0 0.095,2.108 1.339,2.683 z" id="path162" inkscape:connector-curvature="0" style="fill:#dd6f93"/>
	<path d="m 129.133,224.7 c 0,0 -1.339,-16.664 -1.244,-19.442 0.095,-2.776 2.776,-6.512 6.32,-7.757 2.444,-0.859 4.798,-0.397 6.554,0.288 -0.18,-0.271 -0.357,-0.481 -0.535,-0.587 -1.628,-0.957 -4.98,-2.489 -8.523,-1.244 -3.543,1.244 -6.225,4.979 -6.323,7.756 -0.095,2.781 1.247,19.442 1.247,19.442 0,0 0.095,2.108 1.339,2.684 0,0 0.635,0.268 1.574,0.51 -0.362,-0.778 -0.409,-1.65 -0.409,-1.65 z" id="path164" inkscape:connector-curvature="0" style="fill:#f8cfc2"/>
	<path d="m 118.149,196.414 h -0.055 c -6.988,1.826 -10.182,7.637 -8.949,14.419 l 0.038,0.09 c 1.751,10.01 3.265,16.292 5.829,18.763 3.938,3.792 8.437,2.008 11.126,0.938 l 0.422,-0.166 c 4.072,-1.602 4.536,-7.064 4.91,-11.456 l 0.167,-1.778 c 0.48,-3.961 -0.578,-10.282 -2.487,-15.111 -3.004,-7.581 -8.581,-6.332 -11.001,-5.699 z" id="path166" inkscape:connector-curvature="0"/>
	<path d="m 118.774,198.928 c 2.877,-0.753 5.46,-1.053 7.28,3.543 1.82,4.596 2.777,11.204 2.395,14.365 -0.385,3.161 -0.385,9.577 -3.066,10.63 -2.681,1.056 -5.553,2.397 -8.139,-0.093 -2.585,-2.49 -4.405,-14.369 -5.171,-18.579 -0.767,-4.218 0.476,-8.238 6.701,-9.866 z" id="path168" inkscape:connector-curvature="0" style="fill:#dd6f93"/>
	<path d="m 114.385,210.718 c -0.767,-4.212 0.48,-8.233 6.705,-9.862 1.435,-0.375 2.793,-0.637 4.023,-0.237 -1.724,-2.622 -3.925,-2.321 -6.339,-1.69 -6.225,1.628 -7.468,5.648 -6.702,9.866 0.767,4.21 2.586,16.089 5.171,18.579 0.545,0.523 1.105,0.873 1.669,1.094 -2.241,-3.626 -3.826,-13.893 -4.527,-17.75 z" id="path170" inkscape:connector-curvature="0" style="fill:#f8cfc2"/>
	<path d="m 104.47,201.177 h -0.049 c -3.254,0.515 -5.774,2.224 -7.602,4.845 -2.086,2.985 -3.022,6.229 -2.229,10.261 0.679,3.453 2.101,5.516 3.355,7.332 l 0.096,0.139 1.552,2.671 c 1.02,1.86 1.424,2.329 2.553,3.57 3.75,4.127 9.116,4.413 12.348,2.615 2.029,-1.123 3.085,-5.305 3.003,-7.168 l 0.084,0.055 c -0.027,-0.887 0.442,-2.728 -0.082,-5 -1.372,-5.93 -3.996,-12.877 -4.119,-13.216 -1.591,-4.384 -4.797,-6.756 -8.91,-6.104 z" id="path172" inkscape:connector-curvature="0"/>
	<path d="m 104.986,203.714 c 2.351,-0.373 3.928,0.384 5.076,3.546 0.791,2.184 3.169,9.042 4.307,13.962 0.507,2.196 0.516,3.939 0.545,4.635 0.106,2.509 0.221,4.1 -1.502,5.06 -1.724,0.957 -5.363,1.53 -8.235,-1.628 -1.462,-1.607 -3.208,-5.496 -4.49,-7.359 -1.241,-1.801 -2.378,-3.394 -2.943,-6.269 -1.151,-5.839 1.696,-11.068 7.242,-11.947 z" id="path174" inkscape:connector-curvature="0" style="fill:#dd6f93"/>
	<path d="m 108.646,231.41 c -1.459,-1.609 -3.208,-5.496 -4.49,-7.359 -1.241,-1.801 -2.378,-3.394 -2.943,-6.269 -1.148,-5.84 1.7,-11.069 7.242,-11.946 0.322,-0.052 0.63,-0.077 0.924,-0.084 -1.075,-1.893 -2.477,-2.342 -4.394,-2.038 -5.545,0.879 -8.393,6.108 -7.242,11.946 0.564,2.875 1.702,4.468 2.943,6.269 1.282,1.863 3.028,5.752 4.49,7.359 1.113,1.225 2.343,1.885 3.532,2.182 -0.018,-0.022 -0.04,-0.041 -0.062,-0.06 z" id="path176" inkscape:connector-curvature="0" style="fill:#f8cfc2"/>
	<path d="m 141.585,219.032 c -0.038,0.005 -4.675,0.441 -12.141,0.627 -7.105,0.178 -10.466,2.105 -12.421,7.318 -0.802,2.141 -0.6,4.31 0.504,6.091 0.96,1.56 2.738,1.928 4.514,2.116 1.26,0.134 11.592,0.887 14.835,0.535 4.329,-0.461 7.457,-4.525 8.183,-7.682 0.731,-3.166 0,-7.354 -1.767,-8.379 -1.325,-0.768 -0.185,-0.808 -1.707,-0.626 z" id="path178" inkscape:connector-curvature="0"/>
	<path d="m 142.504,227.384 c -0.475,2.054 -2.681,5.747 -5.362,6.033 -2.681,0.289 -13.695,-0.478 -15.515,-0.671 -1.822,-0.19 -2.97,-2.299 -2.108,-4.596 0.862,-2.3 2.97,-5.846 10.728,-6.033 7.757,-0.194 11.683,-0.672 11.683,-0.672 0,0 1.15,3.449 0.574,5.939 z" id="path180" inkscape:connector-curvature="0" style="fill:#dd6f93"/>
	<path d="m 122.797,228.537 c 0.862,-2.302 2.968,-5.842 10.725,-6.036 3.783,-0.093 6.65,-0.256 8.6,-0.396 -0.109,-0.411 -0.193,-0.66 -0.193,-0.66 0,0 -3.925,0.478 -11.683,0.672 -7.757,0.188 -9.866,3.733 -10.728,6.033 -0.862,2.297 0.286,4.405 2.108,4.596 0.428,0.047 1.375,0.123 2.597,0.213 -1.404,-0.578 -2.176,-2.428 -1.426,-4.422 z" id="path182" inkscape:connector-curvature="0" style="fill:#f8cfc2"/>
	<path d="m 253.613,216.626 c -0.813,0.444 -1.383,1.23 -1.553,2.142 l -1.579,8.423 c -0.035,0.193 -0.055,0.384 -0.055,0.572 0,1.184 1.389,1.52 2.493,2.035 7.193,3.347 12.25,9.879 14.323,12.98 -7.438,4.845 -13.96,10.875 -14.285,11.191 -0.622,0.595 -0.951,1.404 -0.951,2.229 0,0.45 0.101,0.908 0.305,1.334 2.142,4.454 7.709,14.893 13.216,15.664 1.781,0.251 3.447,-0.384 4.694,-1.783 2.346,-2.641 17.257,-22.457 17.555,-27.191 0.308,-4.938 -5.627,-11.702 -12.064,-16.448 -8.021,-5.921 -19.186,-10.086 -19.646,-10.274 -0.86,-0.348 -1.643,-1.318 -2.453,-0.874 z" id="path184" inkscape:connector-curvature="0"/>
	<path d="m 255.1,256.195 c 0,0 8.771,-8.426 15.269,-12.637 -0.782,-2.321 -6.671,-11.058 -16.851,-15.799 l 1.582,-8.425 c 0,0 10.979,4.427 18.779,10.182 7.136,5.265 11.407,11.584 11.232,14.394 -0.175,2.807 -12.989,20.714 -17.2,25.451 -4.214,4.742 -12.811,-13.166 -12.811,-13.166 z" id="path186" inkscape:connector-curvature="0" style="fill:#dd6f93"/>
	<path d="M 273.879,229.517 C 266.078,223.762 255.1,219.335 255.1,219.335 l -0.502,2.667 c 12.877,4.149 23.684,12.504 30.061,23.259 0.273,-0.592 0.437,-1.059 0.453,-1.351 0.174,-2.809 -4.097,-9.129 -11.233,-14.393 z" id="path188" inkscape:connector-curvature="0" style="fill:#f8cfc2"/>
	<path d="m 270.074,242.877 c 0.125,0.259 0.231,0.496 0.294,0.682 -6.497,4.211 -15.269,12.637 -15.269,12.637 0,0 0.867,1.812 2.19,4.127 3.908,-7.501 8.347,-14.514 16.627,-18.379 -1.281,-0.638 -2.562,0.13 -3.842,0.933 z" id="path190" inkscape:connector-curvature="0" style="fill:#f8cfc2"/>
	<path d="m 250.288,261.738 -4.064,1.584 c -0.108,0.012 -0.33,0.677 -0.437,0.69 -1.197,0.175 -9.096,1.694 -13.94,4.092 -4.072,2.019 -5.703,3.295 -6.47,6.628 -0.478,2.064 -1.765,15.495 -0.718,20.566 0.696,3.393 4.643,7.907 6.112,9.222 1.517,1.358 3.719,3.363 6.55,3.87 2.361,0.423 9.025,1.113 12.313,0.739 3.649,-0.417 5.575,-1.099 6.89,-2.43 l 0.202,-0.208 c 0.057,-0.055 6,-6.328 6.191,-9.187 0.008,-0.101 0.011,-0.201 0.011,-0.306 0,-1.521 -0.712,-3.562 -2.373,-4.958 -0.049,-0.044 -0.111,-0.079 -0.164,-0.12 0.925,-1.31 1.763,-2.837 2.163,-4.512 0.96,-3.979 1.806,-12.103 1.842,-12.446 0.008,-0.104 0.016,-0.213 0.016,-0.319 0,-0.384 -0.073,-0.766 -0.215,-1.129 l -1.558,-3.966 c -0.234,-0.601 -0.654,-1.11 -1.194,-1.462 l -9.067,-5.878 c -0.617,-0.402 -1.359,-0.568 -2.09,-0.47 z" id="path192" inkscape:connector-curvature="0"/>
	<path d="m 246.45,265.365 c 0,0 -8.998,2.199 -12.894,4.321 -3.895,2.127 -4.746,3.897 -5.169,5.741 -0.425,1.839 -2.054,15.932 -1.135,20.397 0.497,2.405 4.037,6.797 5.385,8.002 1.345,1.206 4.25,2.902 6.232,3.26 1.983,0.352 8.426,0.564 11.331,0.068 2.907,-0.496 3.613,-1.416 4.604,-2.405 0.993,-0.993 4.959,-6.588 5.03,-7.648 0.07,-1.064 -0.993,-4.395 -5.382,-3.331 0,0 4.179,-3.259 5.098,-7.083 0.922,-3.824 1.771,-12.043 1.771,-12.043 l -1.558,-3.966 -9.066,-5.881 z" id="path194" inkscape:connector-curvature="0" style="fill:#dd6f93"/>
	<path d="m 246.45,265.365 c 0,0 -8.998,2.199 -12.894,4.321 -3.895,2.127 -4.746,3.897 -5.169,5.741 -0.425,1.839 -2.054,15.932 -1.135,20.397 0.497,2.405 4.037,6.797 5.385,8.002 1.104,0.988 3.251,2.297 5.084,2.936 -0.657,-0.42 -1.246,-0.846 -1.672,-1.228 -1.345,-1.206 -4.885,-5.597 -5.379,-8.003 -0.922,-4.465 0.707,-18.559 1.132,-20.399 0.423,-1.842 1.274,-3.614 5.169,-5.739 3.896,-2.122 12.891,-4.317 12.891,-4.317 l 3.601,-0.483 -2.766,-1.795 z" id="path196" inkscape:connector-curvature="0" style="fill:#f8cfc2"/>
	<path d="M 277.046,254.954" id="path198" inkscape:connector-curvature="0"/>
	<path d="m 263.299,256.468 m -16.03,8.859 c -0.033,0.091 -0.09,0.196 -0.178,0.292 0.079,-0.084 0.112,-0.196 0.178,-0.292 z m 4.642,-3.715 c 0.93,-0.259 1.69,-0.963 2.051,-1.854 0.082,-0.21 0.876,-2.043 3.066,-2.376 0.51,-0.079 0.989,-0.109 1.459,-0.12 -0.557,0.66 -0.966,1.438 -1.104,2.379 -0.025,0.147 -0.033,0.297 -0.033,0.444 0,0.933 0.434,1.825 1.179,2.422 0.861,0.685 2.04,0.854 3.063,0.453 0.57,-0.224 1.997,-0.537 2.771,-0.082 0.712,0.417 0.99,1.705 1.089,2.436 0.139,1.007 0.764,1.877 1.666,2.338 0.158,0.079 2.864,1.375 6.366,1.271 -0.131,0.504 -0.278,0.93 -0.444,1.104 -1.028,1.053 -3.175,1.71 -3.846,1.86 -0.824,0.183 -1.541,0.703 -1.978,1.426 -0.298,0.488 -0.45,1.048 -0.45,1.609 0,0.271 0.035,0.543 0.109,0.805 0.149,0.56 0.316,1.558 0.316,2.548 0,0.84 -0.12,1.678 -0.473,2.242 -0.146,0.234 -0.4,0.455 -0.671,0.668 -0.253,-1.462 -0.837,-2.896 -2.103,-3.876 l -0.723,-0.54 c -1.806,-1.325 -2.706,-2.152 -2.706,-3.575 0,-0.216 0.019,-0.442 0.06,-0.688 0.027,-0.169 0.044,-0.336 0.044,-0.505 0,-0.946 -0.441,-1.854 -1.211,-2.444 -0.9,-0.698 -2.122,-0.834 -3.158,-0.37 -0.783,0.352 -3.38,1.202 -4.995,0.521 -1.792,-0.759 -3.84,-3.445 -3.922,-4.481 0.333,-0.51 0.551,-1.08 0.551,-1.672 0,-0.537 -0.139,-1.075 -0.423,-1.561 -0.411,-0.698 -1.063,-1.181 -1.806,-1.396 0.677,-0.349 1.182,-0.925 1.451,-1.62 0.564,0.772 1.244,1.509 2.104,2.155 0.769,0.578 1.776,0.738 2.701,0.479 z" id="path200" inkscape:connector-curvature="0"/>
	<path d="m 242.714,256.916 c -4.962,1.977 -6.983,4.361 -6.503,8.872 0.117,1.089 0.818,1.773 1.863,1.457 0.008,-0.003 0.638,-0.145 0.638,-0.145 0.89,-0.268 2.341,-0.633 3.655,-0.949 0.017,0.09 0.011,0.169 0.03,0.259 0.673,3.025 3.826,6.672 6.887,7.962 2.19,0.928 4.522,0.712 6.304,0.306 0.611,3.219 3.129,5.07 4.637,6.175 0,0 0.608,0.456 0.611,0.456 0.193,0.193 0.305,0.851 0.305,1.699 0,0.729 -0.084,1.602 -0.275,2.431 -0.035,0.149 -0.052,0.3 -0.052,0.447 0,0.507 0.194,1.001 0.554,1.374 0.461,0.48 0.265,0.055 0.925,-0.07 0.575,-0.109 6.579,-0.546 8.729,-3.993 0.963,-1.547 1.241,-3.366 1.241,-4.956 0,-0.726 -0.065,-1.369 -0.142,-1.953 1.366,-0.491 2.945,-1.151 3.928,-2.815 2.149,-3.633 1.966,-9.903 1.401,-10.247 -0.564,-0.341 -1.634,0.073 -2.233,0.352 -2.352,1.103 -3.931,0.745 -5.12,0.35 -0.09,-2.761 -1.844,-4.872 -3.739,-5.362 0.491,-0.652 1.511,-0.401 1.634,-0.783 0.068,-0.202 -0.521,-1.077 -1.176,-1.762 -2.76,-2.902 -6.14,-4.321 -10.553,-3.645 -2.594,0.396 -4.32,1.719 -5.42,2.984 -2.105,-2.368 -0.832,-4.968 -1.203,-5.155 -0.792,-0.394 -6.45,2.017 -6.926,6.711 z m -0.404,0.962 c 0,-0.005 0.003,-0.011 0.003,-0.016 0.006,0.117 0.014,0.267 0.021,0.313 -0.016,-0.1 -0.024,-0.198 -0.024,-0.297 z m 2.564,1.891 c 0.832,-0.259 1.383,-1.11 1.383,-1.98 0,-0.041 -0.006,-0.131 -0.006,-0.145 0,-0.128 0.044,-0.81 0.611,-1.816 0.434,1.555 1.307,3.126 3.02,4.416 0.496,0.374 1.143,0.48 1.737,0.311 0.598,-0.171 1.083,-0.624 1.304,-1.205 0.041,-0.104 1.039,-2.624 3.936,-3.065 1.65,-0.254 3.094,-0.147 4.384,0.248 -1.354,0.717 -2.534,1.751 -2.761,3.272 -0.014,0.096 -0.021,0.191 -0.021,0.287 0,0.6 0.275,1.173 0.756,1.552 0.556,0.439 1.309,0.548 1.969,0.283 0.616,-0.248 2.493,-0.733 3.734,-0.014 0.856,0.497 1.407,1.594 1.634,3.252 0.087,0.644 0.488,1.202 1.066,1.494 0.166,0.082 3.363,1.612 7.223,1.021 -0.164,1.307 -0.475,2.577 -1.009,3.123 -1.233,1.263 -3.593,1.997 -4.397,2.171 -0.534,0.117 -0.992,0.447 -1.273,0.911 -0.188,0.313 -0.286,0.671 -0.286,1.028 0,0.175 0.021,0.352 0.07,0.523 0.147,0.543 0.36,1.653 0.36,2.823 0,1.012 -0.158,2.067 -0.641,2.848 -0.514,0.821 -1.536,1.465 -2.567,1.937 -0.003,-1.745 -0.379,-3.726 -1.835,-4.854 l -0.701,-0.524 c -1.874,-1.377 -3.159,-2.481 -3.159,-4.457 0,-0.277 0.024,-0.569 0.077,-0.881 0.019,-0.111 0.026,-0.218 0.026,-0.324 0,-0.608 -0.283,-1.189 -0.774,-1.571 -0.581,-0.444 -1.361,-0.529 -2.026,-0.229 -0.957,0.436 -3.879,1.374 -5.881,0.528 -1.868,-0.788 -4.17,-3.401 -4.568,-5.18 -0.071,-0.318 -0.068,-0.589 0.008,-0.674 0.575,-0.641 0.671,-1.576 0.237,-2.32 -0.437,-0.745 -1.301,-1.121 -2.144,-0.931 -0.117,0.027 -1.935,0.439 -3.78,0.892 0.587,-0.934 1.792,-1.973 4.294,-2.75 z m 18.416,-2.194 m -19.966,4.656 c -0.169,0.188 -0.251,0.426 -0.379,0.636 0.082,-0.229 0.207,-0.447 0.379,-0.636 z" id="path202" inkscape:connector-curvature="0"/>
	<path d="m 238.172,265.68 c 0,0 -1.451,-5.447 6.115,-7.802 0,0 -1.194,-2.271 3.972,-6.055 0,0 -1.296,3.748 2.812,6.841 0,0 1.329,-3.701 5.491,-4.337 3.922,-0.601 7.013,0.414 9.32,2.769 0,0 -5.122,0.829 -5.444,2.997 0,0 7.013,-2.904 8.073,4.801 0,0 3.03,2.376 7.274,0.391 0,0 0.012,5.286 -1.928,7.269 -1.937,1.983 -4.007,2.354 -4.007,2.354 0,0 1.246,4.429 -0.511,7.244 -1.751,2.813 -6.549,3.736 -6.549,3.736 0,0 1.107,-4.705 -0.739,-6.137 -1.847,-1.43 -5.261,-3.322 -4.522,-7.752 0,0 -4.197,1.937 -7.476,0.554 -3.276,-1.386 -7.335,-6.69 -5.259,-8.998 0,0 -4.588,1.571 -6.574,2.174" id="path204" inkscape:connector-curvature="0" style="fill:#ffffff"/>
	<path d="m 270.158,243.638 c 0.862,-0.45 3.246,-1.806 4.23,-1.888 0.988,-0.082 -1.438,-1.069 -5.256,0.327" id="path206" inkscape:connector-curvature="0"/>
	<path d="m 255.956,292.391 c -0.783,0.783 -3.156,2.646 -4.241,3.222 -1.086,0.578 -2.545,0.919 -2.376,1.121 0.169,0.201 3.12,2.002 3.429,3.292 0,0 0.371,0.846 0.61,0.169 0.237,-0.679 0,-7.326 3.661,-6.549 3.666,0.783 1.293,-1.629 1.293,-1.629" id="path208" inkscape:connector-curvature="0"/>
	<path d="m 252.647,206.191 c -3.053,0.259 -43.538,0.641 -64.865,1.563 0.193,-0.01 0.368,0.082 0.56,0.109 -2.951,-0.401 -8.663,0.813 -12.632,4.404 -3.543,3.213 -4.65,7.656 -4.127,7.97 0.207,0.126 3.96,-1.836 7.048,1.71 -1.036,2.035 -4.31,6.857 -4.372,11.483 -0.052,3.751 3.513,11.058 4.647,11.737 0.158,0.096 0.505,-2.043 2.485,-3.211 -0.753,7.272 2.103,11.173 6.15,13.551 0,0 7.603,3.903 8.068,4.176 5.175,3.178 5.913,8.625 6.541,8.347 0.567,-0.253 3.347,-6.216 7.092,-7.165 0,0 10.971,-2.605 14.184,-4.364 2.119,-1.156 4.435,-3.281 5.275,-6.243 1.794,1.044 0.231,3.636 0.458,3.573 1.593,-0.429 9.416,-2.502 13.488,-8.47 1.516,0.759 0.592,1.877 0.981,1.877 1.225,0 7.689,-5.227 11.658,-9.31 3.406,-3.502 7.489,-8.505 7.596,-12.457 0.006,-0.147 0.006,-0.295 0.006,-0.441 0,-1.855 -0.33,-3.514 -0.958,-4.932 5.055,-5.046 9.795,-3.05 10.376,-3.109 1.064,-0.106 0.882,-6.075 -5.259,-9.56 -4.113,-2.34 -10.084,-1.611 -14.4,-1.238 z" id="path210" inkscape:connector-curvature="0"/>
	<path d="m 187.913,210.841 c 0,0 -7.848,-0.266 -11.306,3.325 -3.459,3.592 -3.727,4.787 -3.727,4.787 0,0 1.901,-0.69 4.086,0.207 2.188,0.897 4.433,2.13 4.433,2.13 0,0 -3.03,4.94 -4.375,9.929 -1.345,4.991 1.235,10.485 1.853,12.503 0,0 2.13,-6.56 7.121,-7.176 0,0 -2.018,2.971 -1.57,8.245 0.449,5.271 2.522,8.129 5.381,9.812 2.864,1.683 6.62,3.87 6.62,3.87 0,0 4.653,2.572 5.889,7.122 0,0 2.239,-4.487 6.056,-5.832 3.813,-1.347 9.926,-2.804 13.627,-5.16 3.701,-2.356 6.225,-6.279 4.037,-10.428 0,0 3.701,-0.169 4.596,1.737 0.9,1.904 0.508,5.551 0.508,5.551 0,0 9.59,-2.807 11.551,-13.18 0,0 2.58,3.645 2.466,6.451 0,0 3.199,-2.638 5.665,-4.769 2.469,-2.13 8.862,-10.487 8.975,-14.579 0.111,-4.094 -1.629,-6.339 -4.152,-7.179 0,0 3.088,0.169 6.506,-1.514 3.42,-1.683 6.62,-1.964 8.412,-1.402 0,0 -0.563,-3.478 -3.925,-5.439 -3.366,-1.962 -9.141,-2.355 -13.068,-2.02 -3.927,0.34 -65.659,3.009 -65.659,3.009 z" id="path212" inkscape:connector-curvature="0" style="fill:#ffffff"/>
	<path d="m 193.51,254.496 c 0,0 -3.756,-2.188 -6.614,-3.867 -0.475,-0.281 -0.927,-0.598 -1.355,-0.949 0.969,2.32 2.46,3.859 4.269,4.923 2.864,1.683 6.62,3.87 6.62,3.87 0,0 1.187,0.657 2.521,1.894 -1.644,-3.765 -5.441,-5.871 -5.441,-5.871 z m 34.753,-10.114 c -0.068,-0.875 -0.224,-1.77 -0.543,-2.446 -0.897,-1.906 -4.599,-1.737 -4.599,-1.737 2.188,4.151 -0.336,8.073 -4.037,10.431 -3.701,2.354 -9.813,3.81 -13.624,5.16 -3.027,1.063 -5.058,4.103 -5.771,5.313 1.077,1.153 2.13,2.662 2.629,4.492 0,0 2.239,-4.487 6.056,-5.832 3.813,-1.347 9.926,-2.804 13.627,-5.16 3.701,-2.356 6.225,-6.279 4.037,-10.428 -0.001,0 1.084,-0.049 2.225,0.207 z m 39.113,-34.036 c 0.205,0.585 0.271,0.97 0.271,0.97 -1.795,-0.562 -4.989,-0.278 -8.412,1.402 -3.42,1.683 -6.502,1.514 -6.502,1.514 1.753,0.586 3.111,1.868 3.747,3.963 1.148,-0.065 3.331,-0.349 5.671,-1.5 3.42,-1.683 6.62,-1.964 8.412,-1.402 0,-0.001 -0.484,-2.946 -3.187,-4.947 z m -36.565,36.013 c 0.665,1.976 0.33,5.104 0.33,5.104 0,0 8.406,-2.46 11.087,-11.292 -0.215,-2.7 -2.449,-5.861 -2.449,-5.861 -1.307,6.894 -5.982,10.443 -8.968,12.049 z m 25.81,-27.728 c 0.194,0.813 0.287,1.734 0.26,2.779 -0.112,4.095 -6.506,12.452 -8.974,14.579 -1.474,1.273 -3.197,2.72 -4.356,3.686 0.739,1.317 1.678,3.344 1.606,5.06 0,0 3.199,-2.638 5.665,-4.769 2.469,-2.13 8.862,-10.487 8.975,-14.579 0.095,-3.543 -1.195,-5.695 -3.176,-6.756 z" id="path214" inkscape:connector-curvature="0" style="fill:#d1d3d4"/>
	<path d="m 256.854,218.669 c -0.475,-0.272 -1.994,-0.753 -3.824,-1.091 -1.833,-0.338 5.286,-2.084 7.962,1.293" id="path216" inkscape:connector-curvature="0"/>
	<path d="m 242.399,239.658 c 0.257,-1.031 0.301,-3.483 -1.29,-4.814 -1.59,-1.334 -2.449,-1.162 -2.105,-1.29 0.344,-0.128 2.449,-0.644 4.255,1.637 1.806,2.277 1.591,5.889 0.56,8.251" id="path218" inkscape:connector-curvature="0"/>
	<path d="m 185.598,237.165 c 0.488,-1.154 1.576,-2.548 1.882,-3.153 0.303,-0.608 -3.579,0.482 -5.458,6.061" id="path220" inkscape:connector-curvature="0"/>
	<path d="m 229.877,211.356 c 0,5.016 4.084,9.097 9.1,9.097 5.016,0 9.1,-4.081 9.1,-9.097 0,-5.019 -4.084,-9.099 -9.1,-9.099 -5.016,0 -9.1,4.081 -9.1,9.099 z" id="path222" inkscape:connector-curvature="0"/>
	<circle cx="239.619" cy="211.26401" r="6.6269999" id="circle224" style="fill:#f6d2e2"/>
	<path d="m 209.601,219.561 c 0,7.395 6.017,13.412 13.411,13.412 7.394,0 13.409,-6.018 13.409,-13.412 0,-7.394 -6.015,-13.409 -13.409,-13.409 -7.394,0 -13.411,6.014 -13.411,13.409 z" id="path226" inkscape:connector-curvature="0"/>
	<circle cx="223.562" cy="219.46899" r="10.939" id="circle228" style="fill:#f6d2e2"/>
	<path d="m 180.039,214.029 c 0,6.115 4.975,11.096 11.096,11.096 6.118,0 11.096,-4.98 11.096,-11.096 0,-6.12 -4.978,-11.098 -11.096,-11.098 -6.121,10e-4 -11.096,4.978 -11.096,11.098 z" id="path230" inkscape:connector-curvature="0"/>
	<circle cx="190.76601" cy="214.73599" r="8.625" id="circle232" style="fill:#f6d2e2"/>
	<path d="m 190.218,212.914 c -4.76,3.262 -7.25,8.024 -7.25,13.831 0,0.396 0.011,0.797 0.036,1.206 0.332,5.779 6.022,8.562 9.333,9.293 10.032,2.146 19.187,2.188 23.338,0.109 3.982,-1.988 5.698,-8.439 3.903,-14.683 -1.547,-5.379 -6.007,-9.918 -12.229,-12.453 -5.339,-2.175 -11.425,-1.216 -17.131,2.697 z" id="path234" inkscape:connector-curvature="0"/>
	<path d="m 188.652,231.647 c -0.063,0.313 -0.595,3.12 -0.426,5.411 0.234,3.216 1.844,4.661 4.185,5.843 1.246,0.627 7.973,1.923 10.957,1.672 3.587,-0.3 6.003,-2.706 6.011,-5.984 l 0.088,-6.432 c -0.017,1.363 -1.138,2.438 -2.504,2.422 -1.364,-0.021 -2.455,-1.156 -2.436,-2.522 l -0.09,6.519 c 0,0.283 -0.003,0.949 -1.484,1.072 -2.081,0.177 -7.375,-0.846 -8.393,-1.2 -1.307,-0.669 -1.34,-0.854 -1.405,-1.754 -0.016,-0.181 -0.019,-0.377 -0.019,-0.581 0,-1.314 0.251,-2.93 0.365,-3.511 0.03,-0.158 0.047,-0.319 0.047,-0.478 0,-1.156 -0.816,-2.19 -1.994,-2.422 -1.339,-0.262 -2.637,0.609 -2.902,1.945 z" id="path236" inkscape:connector-curvature="0"/>
	<path d="m 192.414,234.83 c 0,0 -7.087,-1.565 -7.4,-7.023 -0.313,-5.455 1.757,-9.847 6.146,-12.855 4.389,-3.008 9.721,-4.513 14.8,-2.446 5.079,2.07 9.345,5.831 10.788,10.848 1.439,5.019 0.248,10.349 -2.636,11.791 -2.886,1.442 -10.85,2.006 -21.698,-0.315 z" id="path238" inkscape:connector-curvature="0" style="fill:#ffffff"/>
	<path d="m 190.622,232.676 c 0,0 -0.54,2.725 -0.391,4.751 0.15,2.024 0.9,2.84 2.834,3.816 0.736,0.37 6.975,1.639 9.637,1.415 1.822,-0.149 3.742,-1.14 3.751,-3.529 0.005,-2.39 0.087,-6.473 0.087,-6.473" id="path240" inkscape:connector-curvature="0" style="fill:#ffffff"/>
	<path d="m 209.006,227.204 c 0,3.271 -1.506,4.827 -2.987,4.827 -1.478,0 -2.443,-1.947 -2.443,-5.218 0,-3.272 0.835,-6.593 2.313,-6.593 1.477,0.001 3.117,3.714 3.117,6.984 z" id="path242" inkscape:connector-curvature="0"/>
	<path d="m 190.438,225.889 c 0,3.268 1.503,4.825 2.981,4.825 1.481,0 2.447,-1.947 2.447,-5.218 0,-3.271 -0.835,-6.59 -2.313,-6.59 -1.478,0 -3.115,3.71 -3.115,6.983 z" id="path244" inkscape:connector-curvature="0"/>
	<path d="m 194.299,241.892 c 0,0 -1.007,-1.085 -1.007,-3.237 0,-2.119 0.224,-3.658 0.774,-3.813 0.546,-0.158 0.669,1.089 0.625,2.899 -0.061,2.572 0.782,4.621 0.782,4.621" id="path246" inkscape:connector-curvature="0"/>
	<path d="m 199.92,242.822 c 0,0 -1.056,-1.135 -1.056,-3.385 0,-2.221 0.234,-3.827 0.811,-3.991 0.572,-0.163 0.698,1.141 0.654,3.033 -0.063,2.689 0.821,4.833 0.821,4.833" id="path248" inkscape:connector-curvature="0"/>
	<path d="m 145.496,18.659 c -2.924,0.911 -17.427,7.583 -26.829,14.403 -9.026,6.544 -28.37,23.011 -31.248,43.005 -0.147,1.027 -0.272,2.06 -0.368,3.096 -1.658,17.778 2.267,35.158 14.083,45.584 3.827,3.375 28.629,19.112 35.298,25.96 10.654,10.941 15.951,22.918 16,23.044 0.42,1.075 0.379,2.712 1.479,3.06 1.099,0.349 2.299,0.181 3.259,-0.453 l 13.055,-8.655 c 1.074,-0.715 1.719,-1.927 1.707,-3.216 l -0.766,-81.134 c -0.014,-1.129 0.75,-3.035 -0.123,-3.751 -4.44,-3.651 -17.135,-12.978 -20.13,-16.147 -3.69,-3.902 -8.875,-10.634 -6.59,-18.123 2.092,-6.85 5.919,-15.403 8.516,-19.902 1.102,-1.909 3.432,-5.754 2.024,-6.987 -1.77,-1.549 -5.234,-1.068 -9.367,0.216 z" id="path250" inkscape:connector-curvature="0"/>
	<path d="m 155.062,173.178 c 0,0 -5.026,-12.938 -16.406,-24.624 C 127.277,136.87 114.803,130.025 105.412,121.759 96.024,113.495 90.099,94.84 92.724,76.611 c 2.624,-18.227 19.194,-35.127 28.192,-41.655 8.999,-6.526 24.54,-14.079 27.071,-14.867 2.528,-0.787 5.729,-1.102 4.82,0.96 -0.909,2.063 -8.677,14.028 -11.623,23.676 -2.948,9.652 2.376,17.31 6.195,21.349 3.816,4.04 19.971,17.314 19.971,17.314 l 0.767,81.134 z" id="path252" inkscape:connector-curvature="0" style="fill:#dd6f93"/>
	<path d="m 150.002,25.98 c -9.35,12.934 -20.271,29.96 -7.746,43.323 7.88,7.386 16.316,13.938 25.148,19.812 l -0.055,-5.727 c 0,0 -16.155,-13.274 -19.971,-17.314 -3.819,-4.04 -9.143,-11.697 -6.195,-21.349 1.964,-6.432 6.069,-13.888 8.856,-18.76 -0.097,-0.089 0.059,0.135 -0.037,0.015 z" id="path254" inkscape:connector-curvature="0" style="fill:#f8cfc2"/>
	<linearGradient id="SVGID_5_" gradientUnits="userSpaceOnUse" x1="153.9111" y1="45.175301" x2="129.2368" y2="120.3891">
		<stop offset="0.01" style="stop-color:#DD6F93" id="stop256"/>
		<stop offset="0.4623" style="stop-color:#8C9ACE" id="stop258"/>
		<stop offset="0.794" style="stop-color:#8C9ACE" id="stop260"/>
		<stop offset="1" style="stop-color:#4B5D94" id="stop262"/>
	</linearGradient>
	<path d="m 166.352,161.967 c 0,-2.337 1.402,-35.99 -10.747,-48.142 -12.154,-12.152 -29.916,-28.977 -29.916,-49.543 0,-20.566 7.479,-26.642 10.28,-31.783 1.857,-3.401 -1.612,-3.527 -9.988,-0.922 -1.814,1.13 -3.535,2.27 -5.065,3.379 -8.999,6.528 -25.568,23.429 -28.192,41.655 -2.624,18.229 3.3,36.884 12.688,45.148 9.392,8.266 21.865,15.111 33.244,26.795 11.38,11.685 16.406,24.624 16.406,24.624 l 10.679,-7.08 c 0.37,-2.059 0.611,-3.601 0.611,-4.131 z" id="path265" style="fill:url(#SVGID_5_)" inkscape:connector-curvature="0"/>
	<path d="m 148.423,111.841 c 0,0 -7.28,-6.483 -16.605,-21.337 -4.542,-7.237 -6.669,-13.154 -7.591,-18.156 -0.971,-5.265 -0.641,-9.513 -0.008,-13.431 1.446,-8.961 5.125,-16.848 6.822,-19.072 1.694,-2.221 1.718,-0.881 1.178,0.11 -0.538,0.992 -4.672,8.639 -5.215,22.426 -0.54,13.787 8.938,27.125 14.375,34.073 4.52,5.778 9.514,9.667 9.514,9.667" id="path267" inkscape:connector-curvature="0"/>
	<path d="m 228.941,71.215 c -29.501,1.541 -60.206,4.179 -60.495,4.208 l -0.799,0.076 -0.698,0.393 c -0.704,0.395 -16.529,10.053 -21.106,37.406 -2.99,17.852 1.841,31.966 3.791,40.617 0.524,2.337 0.979,4.354 1.165,5.794 1.094,8.403 -0.352,9.903 -2.239,12.481 -3.852,5.264 -1.967,10.764 0.319,13.811 2.702,3.596 16.685,13.56 31.44,19.482 13.052,5.237 26.108,7.428 37.589,7.067 4.515,-0.139 46.471,-0.717 70.195,-16.804 11.526,-7.813 13.81,-15.549 14.391,-21.749 0.371,-3.968 -1.053,-6.833 -1.816,-8.828 -0.137,-0.352 -0.3,-0.771 -0.502,-1.208 1.203,-19.493 4.092,-77.995 -3.698,-88.128 -1.954,-2.544 -6.023,-7.835 -67.537,-4.618 z" id="path269" inkscape:connector-curvature="0"/>
	<path d="m 170.59,79.384 c 0,0 -15.643,8.774 -19.971,34.638 -3.68,21.979 2.463,38.359 3.409,45.654 0.949,7.296 0.663,12.848 -1.506,16.134 -2.166,3.288 -1.647,5.194 0.423,7.946 2.07,2.75 15.433,13.993 29.774,19.75 14.345,5.756 25.593,7.269 34.922,6.979 9.328,-0.29 45.382,-2.972 66.477,-17.279 21.101,-14.304 12.185,-28.388 12.185,-28.388 0,0 4.83,-76.67 -2.851,-86.662 -7.681,-9.991 -122.862,1.228 -122.862,1.228 z" id="path271" inkscape:connector-curvature="0" style="fill:#dd6f93"/>
	<path d="m 158.119,186.021 c -2.07,-2.753 -2.588,-4.661 -0.42,-7.946 2.166,-3.284 2.449,-8.838 1.503,-16.134 -0.943,-7.296 -7.086,-23.678 -3.409,-45.654 4.329,-25.864 19.972,-34.638 19.972,-34.638 0,0 93.36,-9.093 117.573,-3.609 -8.532,-9.781 -122.748,1.345 -122.748,1.345 0,0 -15.643,8.774 -19.971,34.638 -3.68,21.979 2.463,38.359 3.409,45.654 0.949,7.296 0.663,12.848 -1.506,16.134 -2.166,3.288 -1.647,5.194 0.423,7.946 2.07,2.75 15.433,13.993 29.774,19.75 0.205,0.079 0.398,0.153 0.601,0.232 -12.508,-6.046 -23.354,-15.263 -25.201,-17.718 z" id="path273" inkscape:connector-curvature="0" style="fill:#f8cfc2"/>
	<path d="m 172.022,184.389 c -1.2,2.444 -5.949,2.579 -10.61,0.297 -4.656,-2.282 -7.466,-6.115 -6.269,-8.561 1.197,-2.447 5.949,-2.581 10.607,-0.299 4.66,2.282 7.467,6.115 6.272,8.563 z" id="path275" inkscape:connector-curvature="0" style="fill:#da1c79"/>
	
		<ellipse transform="matrix(0.9891,-0.147,0.147,0.9891,-25.5282,37.5516)" cx="241.265" cy="191.46899" rx="13.082" ry="6.8670001" id="ellipse277" style="fill:#da1c79"/>
	<path d="m 228.65,148.055 -24.841,4.325 c -0.068,1.63 2.18,18.726 14.138,29.387 9.353,8.337 24.24,10.641 38.08,4.423 6.194,-2.783 14.227,-9.856 17.353,-20.008 1.985,-6.443 1.351,-20.466 -6.975,-28.575 z" id="path279" inkscape:connector-curvature="0"/>
	<path d="m 205.804,152.6 c 0,0 2.613,15.159 13.534,25.326 8.693,8.091 22.489,9.837 34.919,4.254 11.155,-5.013 23.659,-21.762 10.518,-43.131 l -35.263,8.032 z" id="path281" inkscape:connector-curvature="0" style="fill:#ffef00"/>
	<path d="m 149.471,128.552 c -0.287,0.666 -1.907,6.981 0.021,20.913 l 0.278,-0.105 c 2.026,14.629 7.067,23.478 13.589,24.847 2.81,0.589 6.063,-0.693 8.914,-3.035 2.615,-2.146 8.038,-10.199 7.757,-22.198 z" id="path283" inkscape:connector-curvature="0"/>
	<path d="m 152.203,130.46 c 0,0 -2.389,5.528 -0.551,18.807 1.836,13.276 8.616,20.862 13.207,21.826 4.594,0.965 13.011,-6.141 12.842,-21.537 z" id="path285" inkscape:connector-curvature="0" style="fill:#ffef00"/>
	<path d="m 236.568,188.959 c 0,0 0.485,2.479 0.368,4.762 -0.117,2.28 -0.674,4.664 -0.309,4.844 0.366,0.178 4.88,-3.176 7.057,-9.609 z" id="path287" inkscape:connector-curvature="0"/>
	<path d="m 165.495,174.179 c 0,0 -2.75,2.617 -3.849,4.874 -1.091,2.257 -1.11,2.477 -1.582,1.99 -0.472,-0.487 -1.263,-6.235 0.6,-9.601 z" id="path289" inkscape:connector-curvature="0"/>
	<path d="m 190.6,193.532 c 0.674,0.063 0.928,2.627 4.629,4.776 3.704,2.151 8.442,1.848 11.439,0.335 3.025,-1.521 4.967,-5.59 3.925,-8.031 -1.042,-2.439 -3.823,-2.453 -3.78,-2.891 0.038,-0.435 1.582,-0.778 3.772,0.354 2.19,1.131 3.739,3.864 1.43,8.236 -2.313,4.374 -7.431,6.386 -12.684,5.651 -5.254,-0.734 -8.03,-3.386 -8.952,-5.033 -0.922,-1.646 -0.409,-3.455 0.221,-3.397 z" id="path291" inkscape:connector-curvature="0"/>
	<path d="m 182.324,180.777 c 0.415,0.041 0.093,-1.016 -0.038,-2.597 -0.137,-1.579 0.137,-3.199 0.592,-3.136 0.458,0.061 3.404,2.022 4.419,2.601 1.009,0.574 1.721,0.904 1.871,0.596 0.15,-0.308 -0.946,-1.675 -2.087,-2.825 -1.138,-1.151 -4.045,-3.993 -4.719,-3.655 -0.677,0.342 -1.276,2.05 -1.418,3.986 -0.14,1.935 0.385,3.649 0.674,4.221 0.286,0.569 0.624,0.8 0.706,0.809 z" id="path293" inkscape:connector-curvature="0"/>
	<path d="m 155.218,150.284 c -1.329,-9.59 -0.447,-15.12 0.142,-17.461 l -3.156,-2.363 c 0,0 -2.389,5.528 -0.551,18.807 1.836,13.276 8.616,20.862 13.207,21.826 0.398,0.085 0.826,0.103 1.273,0.065 -4.301,-2.543 -9.366,-9.674 -10.915,-20.874 z" id="path295" inkscape:connector-curvature="0" style="fill:#ffffff"/>
	<g id="g309">
		<defs id="defs298">
			<path id="SVGID_6_" d="m 152.203,130.46 c 0,0 -2.389,5.528 -0.551,18.807 1.836,13.276 8.616,20.862 13.207,21.826 4.594,0.965 13.011,-6.141 12.842,-21.537 z" inkscape:connector-curvature="0"/>
		</defs>
		<clipPath id="SVGID_7_">
			<use xlink:href="#SVGID_6_" overflow="visible" id="use300" style="overflow:visible" x="0" y="0" width="100%" height="100%"/>
		</clipPath>
		<g clip-path="url(#SVGID_7_)" id="g307">
			<ellipse transform="matrix(0.9713,-0.2379,0.2379,0.9713,-31.0826,45.5045)" cx="173.004" cy="151.54201" rx="7.1859999" ry="8.1230001" id="ellipse303"/>
			
				<ellipse transform="matrix(0.9848,-0.1735,0.1735,0.9848,-23.6244,32.3998)" cx="173.556" cy="151.36099" rx="5.2470002" ry="6.4229999" id="ellipse305" style="fill:#89287c"/>
		</g>
	</g>
	<path d="m 148.734,128.933 c 0,0 2.119,1.669 9.385,6.893 7.272,5.228 23.603,17.982 25.119,18.928 1.514,0.945 2.311,1.018 2.387,0.224 0.073,-0.795 0.111,-2.665 -3.148,-4.974 -3.262,-2.313 -29.569,-21.351 -34.531,-24.087" id="path311" inkscape:connector-curvature="0"/>
	<path d="m 224.779,177.472 c -10.921,-10.165 -13.534,-25.326 -13.534,-25.326 l 23.708,-5.518 30.225,-6.885 c -0.136,-0.233 -0.259,-0.462 -0.403,-0.694 l -35.263,8.032 -23.708,5.519 c 0,0 2.613,15.159 13.534,25.326 6.576,6.123 16.076,8.604 25.696,7.035 -7.675,0.034 -14.925,-2.528 -20.255,-7.489 z" id="path313" inkscape:connector-curvature="0" style="fill:#ffffff"/>
	<g id="g325">
		<defs id="defs316">
			<path id="SVGID_8_" d="m 205.804,152.6 c 0,0 2.613,15.159 13.534,25.326 8.693,8.091 22.489,9.837 34.919,4.254 11.155,-5.013 23.659,-21.762 10.518,-43.131 l -35.263,8.032 z" inkscape:connector-curvature="0"/>
		</defs>
		<clipPath id="SVGID_9_">
			<use xlink:href="#SVGID_8_" overflow="visible" id="use318" style="overflow:visible" x="0" y="0" width="100%" height="100%"/>
		</clipPath>
		<circle clip-path="url(#SVGID_9_)" cx="248.49699" cy="153.633" r="11.91" id="circle321"/>
		<path clip-path="url(#SVGID_9_)" d="m 257.816,154.045 c -0.456,4.876 -4.776,8.456 -9.647,8.005 -4.877,-0.458 -8.459,-4.778 -8.003,-9.65 0.453,-4.875 4.773,-8.457 9.65,-8.001 4.874,0.453 8.455,4.773 8,9.646 z" id="path323" inkscape:connector-curvature="0" style="fill:#89287c"/>
	</g>
	<path d="m 197.471,154.938 c 0.821,0.988 5.12,0.011 7.124,-0.148 2.008,-0.158 29.404,-6.139 41.534,-8.991 12.132,-2.853 23.806,-7.306 26.52,-9.478 2.712,-2.172 4.656,-5.367 3.573,-5.814 -1.085,-0.448 -3.936,2.525 -8.335,4.497 -4.52,2.019 -21.652,8.309 -51.363,14.637 -8.854,1.887 -14.574,3.13 -16.35,3.57 -1.774,0.441 -3.794,0.414 -2.703,1.727 z" id="path327" inkscape:connector-curvature="0"/>
	<path d="m 312.388,26.507 c -0.205,0.375 -0.196,1.417 3.06,3.184 l -0.029,-0.014 c 6.686,3.766 10.466,14.271 11.142,20.307 0.077,0.701 0.118,1.426 0.118,2.164 0,4.984 -2.507,10.74 -5.537,15.524 -3.074,4.86 -5.312,6.628 -11.98,9.464 -6.8,2.893 -17.5,5.709 -17.606,5.738 -0.466,0.122 -0.908,0.32 -1.307,0.587 0,0 -3.526,78.85 0.251,80.949 2.101,1.167 -4.568,14.544 0.642,11.812 12.765,-6.703 22.797,-11.104 33.246,-14.16 l 8.77,-2.665 c 22.961,-7.434 41.684,-15.385 51.366,-24.482 9.238,-8.676 15.25,-17.887 16.884,-32.852 C 402.93,88.129 399.052,73.072 390.446,59.69 382.822,47.835 371.139,40.013 358.953,33.919 341.878,25.384 325.654,23.131 325.505,23.126 325.4,23.119 314.188,23.265 312.388,26.507 Z" id="path329" inkscape:connector-curvature="0"/>
	<path d="m 292.65,87.056 c 0,0 11.02,-2.885 18.204,-5.941 7.188,-3.056 10.223,-5.252 13.938,-11.129 3.723,-5.878 6.065,-13.668 5.299,-20.483 -0.764,-6.817 -5.556,-17.459 -12.972,-21.362 -3.751,-1.974 2.643,-2.877 6.68,-2.7 1.917,0.083 15.725,2.626 30.514,9.993 13.396,6.673 23.108,14.743 30.71,26.592 8.139,12.687 11.724,26.56 10.305,39.57 -1.418,13.009 -4.809,21.755 -13.764,30.167 -9.642,9.055 -28.749,18.252 -49.743,25.047 -16.111,5.217 -23.776,5.405 -39.449,18.375 -12.34,10.213 -7.597,-24.832 -7.597,-24.832 l 0.409,-58.313 z" id="path331" inkscape:connector-curvature="0" style="fill:#dd6f93"/>
	<path d="m 325.979,76.994 c 9.926,-10.689 10.426,-35.2 -3.633,-44.62 4.408,4.953 7.182,12.084 7.746,17.128 0.767,6.814 -1.576,14.605 -5.299,20.483 -3.716,5.877 -6.751,8.073 -13.938,11.129 -7.185,3.056 -18.204,5.941 -18.204,5.941 l -7.466,4.984 -0.035,4.906 c 2.258,-0.173 28.137,-5.992 40.829,-19.951 z" id="path333" inkscape:connector-curvature="0" style="fill:#f8cfc2"/>
	<linearGradient id="SVGID_10_" gradientUnits="userSpaceOnUse" x1="362.45801" y1="46.246601" x2="337.39059" y2="122.6584">
		<stop offset="0.01" style="stop-color:#DD6F93" id="stop335"/>
		<stop offset="0.4623" style="stop-color:#8C9ACE" id="stop337"/>
		<stop offset="0.794" style="stop-color:#8C9ACE" id="stop339"/>
		<stop offset="1" style="stop-color:#4B5D94" id="stop341"/>
	</linearGradient>
	<path d="m 354.313,35.433 c -14.789,-7.367 -28.597,-9.91 -30.514,-9.993 -2.752,-0.122 -6.601,0.262 -7.58,1.144 10.201,5.155 30.044,16.628 35.407,30.17 7.307,18.465 0,31.159 -20.773,48.854 -20.773,17.697 -38.086,28.469 -39.624,38.085 0,0 2.886,16.416 31.585,15.851 2.742,-0.801 5.695,-1.661 9.007,-2.734 20.994,-6.794 40.102,-15.992 49.743,-25.047 8.955,-8.412 12.346,-17.158 13.764,-30.167 1.419,-13.011 -2.166,-26.883 -10.305,-39.57 -7.601,-11.85 -17.314,-19.92 -30.71,-26.593 z" id="path344" style="fill:url(#SVGID_10_)" inkscape:connector-curvature="0"/>
	<path d="m 289.893,156.889 c 0.917,-0.14 -1.727,-5.526 4.924,-15.684 6.642,-10.158 15.959,-17.549 31.083,-28.956 15.142,-11.406 25.989,-20.595 28.446,-34.156 2.452,-13.562 -1.934,-23.014 -6.767,-28.896 -3.688,-4.49 -7.204,-6.791 -6.784,-6.122 0.762,1.217 8.57,8.021 10.344,17.675 1.772,9.654 3.815,22.999 -13.347,37.38 -14.982,12.555 -25.561,17.535 -36.967,27.822 -11.407,10.285 -16.047,20.733 -14.228,27.58 0.89,3.34 3.296,3.357 3.296,3.357 z" id="path346" inkscape:connector-curvature="0"/>
	<path d="m 291.21,139.887 c 0,0 4.798,11.815 14.854,16.235 10.081,4.438 16.065,3.84 27.061,0.311 10.42,-3.346 2.848,1.249 2.848,1.249 0,0 -10.179,4.287 -23.888,2.076 -13.475,-2.17 -23.155,-11.736 -24.03,-15.988 z" id="path348" inkscape:connector-curvature="0"/>
	<path d="m 217.786,32.024 c -10.313,-0.201 -18.78,3.761 -18.764,4.252 0.006,0.07 -0.032,0.145 -0.014,0.216 0.093,0.341 8.944,3.32 8.876,12.957 0,0.075 -0.024,0.146 -0.035,0.22 -6.165,-6.132 -16.186,-8.869 -28.479,-4.711 -8.014,2.71 -15.141,9.085 -15.11,9.955 0.011,0.257 6.401,0.689 11.065,5.766 -5.93,-0.027 -12.31,1.18 -17.225,5.609 -11.006,9.921 -10.417,27.437 -9.561,27.304 1.282,-0.199 4.479,-4.337 10.998,-5.798 -1.001,1.958 -1.854,4.222 -2.27,6.842 -0.09,0.576 -0.158,1.143 -0.216,1.7 -0.949,9.913 5.254,15.125 6.609,15.801 0.73,0.365 1.156,-7.599 8.791,-12.521 -0.24,1.078 -0.437,2.198 -0.546,3.378 -0.172,1.838 -0.158,3.79 0.126,5.816 1.217,8.653 5.305,13.459 10.054,18.209 0,0 9.127,9.796 11.068,17.202 0.374,1.416 7.302,-6.063 12.604,-9.089 l 4.621,-2.583 c 9.088,-5.041 16.846,-9.44 19.701,-12.231 0.393,-0.385 0.689,-0.813 1.05,-1.212 0.797,1.95 -1.8,8.971 -1.112,9.099 1.596,0.295 10.373,-2.11 15.41,-4.146 9.244,-3.739 15.343,-8.558 18.265,-14.361 1.391,1.683 0.049,8.093 -0.546,9.026 -1.208,1.889 13.229,-4.472 18.024,-7.658 4.863,-3.232 9.517,-6.635 12.991,-12.721 1.612,-2.826 2.327,-5.508 2.548,-7.865 0.12,-1.285 -0.513,-5.515 -0.622,-6.576 2.234,-0.436 8.415,-0.094 8.546,-1.464 0.041,-0.448 0.005,-0.908 -0.12,-1.361 -0.085,-0.314 -2.174,-7.684 -9.358,-11.823 -4.52,-2.605 -12.67,-6.545 -21.802,-7.579 0.562,-0.789 1.121,-1.544 1.724,-1.983 4.967,-3.609 12.269,-3.539 12.515,-4.342 0.251,-0.833 -5.363,-7.32 -15.063,-11.061 l -0.6,-0.167 c -4.74,-1.322 -10.114,-2.822 -18.038,1.644 -3.398,1.915 -5.422,3.543 -7.623,5.34 C 236.827,33.4 228.15,32.226 217.786,32.024 Z m -35.159,28.713 c -0.008,0 -0.032,-0.004 -0.044,-0.004 0.017,0 0.027,0.004 0.044,0.004 z" id="path350" inkscape:connector-curvature="0"/>
	<path d="m 180.772,90.329 c 0,0 -6.363,7.964 -4.962,17.95 1.402,9.984 9.271,16.205 12.976,21.909 3.701,5.706 4.541,8.08 5.114,10.293 0,0 3.852,-5.171 9.969,-8.665 6.118,-3.489 20.114,-10.874 23.545,-14.226 4.28,-4.183 5.39,-8.661 5.712,-12.087 0,0 2.577,3.87 2.744,8.554 0.169,4.684 -3.146,11.463 -3.146,11.463 0,0 6.063,-2.893 11.273,-5 5.21,-2.107 16.772,-7.425 17.816,-17.701 0,0 4.921,1.929 5.644,6.232 0.723,4.302 -1.53,7.119 -1.53,7.119 0,0 8.344,-5.099 13.137,-8.285 4.789,-3.183 8.788,-6.18 11.786,-11.433 2.997,-5.251 2.228,-9.994 1.252,-12.503 0,0 7.206,-1.23 8.73,-1.866 0,0 -1.672,-6.12 -7.583,-9.523 -5.902,-3.405 -16.117,-7.902 -26.201,-7.288 0,0 2.365,-5.917 5.639,-8.551 3.27,-2.634 7.474,-3.193 11.313,-2.661 0,0 -7.766,-4.789 -12.484,-6.092 -4.722,-1.307 -8.908,-2.734 -15.754,1.123 -6.841,3.855 -11.809,8.924 -11.809,8.924 0,0 -3.663,-9.849 -8.452,-15.051 -4.784,-5.201 -9.512,-8.321 -17.793,-8.49 -8.283,-0.167 -14.897,2.155 -14.897,2.155 0,0 5.987,2.547 8.18,7.765 2.196,5.219 -1.11,11.914 -1.11,11.914 0,0 -5.414,-5 -10.198,-7.438 -4.79,-2.434 -16.9,-5.12 -32.272,4.943 0,0 11.175,-0.255 14.816,10.719 0,0 -14.381,-1.515 -21.996,5.035 -7.609,6.552 -10.332,17.19 -10.294,20.477 0,0 9.015,-9.531 18.4,-7.272 0,0 -6.033,4.452 -7.299,12.459 -1.269,8.007 2.101,13.593 2.101,13.593 0,0 4.623,-16.168 17.633,-18.495 z" id="path352" inkscape:connector-curvature="0" style="fill:#f6d2e2"/>
	<path d="m 244.975,51.958 c 0,0 -2.381,2.408 -3.756,5.597 0,0 -2.604,-4.423 -5.671,-6.174 -3.068,-1.751 -8.665,-2.271 -11.262,-1.224 -2.597,1.051 -5.272,3.429 -5.644,4.171 -0.374,0.74 0.936,0.086 3.51,1.62 2.57,1.532 4.229,5.006 2.646,13.174 0,0 -3.511,-1.147 -6.047,-2.161 -2.534,-1.011 -7.695,-3.389 -13.156,-2.13 -5.46,1.254 -12.824,7.678 -15.247,11.458 -2.419,3.783 -4.588,7.63 -4.301,8.261 0.283,0.63 1.975,-1.325 5.998,-2.414 4.021,-1.09 7.52,0.228 8.872,0.957 0,0 -4.732,3.609 -8.858,9.515 -4.127,5.905 -5.391,15.267 -3.097,21.644 2.292,6.375 6.424,19.342 4.814,26.905 0,0 9.847,-7.654 9.945,-7.775 0.098,-0.122 7.383,-3.838 7.383,-3.838 0,0 17.416,-8.239 19.348,-11.43 1.926,-3.191 3.925,-5.94 3.925,-5.94 l -2.73,14.097 4.863,-0.853 c 0,0 17.471,-7.825 20.136,-10.73 2.659,-2.905 6.605,-9.057 6.605,-9.057 0,0 2.867,1.897 2.665,4.053 -0.202,2.154 -1.214,7.168 -1.214,7.168 0,0 6.102,-2.473 13.856,-7.512 7.755,-5.037 14.071,-10.97 15.105,-15.111 1.039,-4.144 0.867,-9.27 0.867,-9.27 l 7.364,-2.031 c 0,0 -1.95,-8.227 -8.33,-12.084 -6.379,-3.857 -21.774,-7.792 -23.334,-7.396 -1.561,0.399 2.763,-5.177 3.12,-5.469 0.354,-0.294 11.975,-3.666 11.975,-3.666 L 281.784,50.284 263.582,45 247.129,52.379 Z" id="path354" inkscape:connector-curvature="0"/>
	<path d="m 275.78,265.289 c -3.737,1.746 -6.527,0.12 -7.146,-0.297 0.052,0.771 -0.065,1.544 -0.45,2.315 -1.743,1.743 -4.361,2.616 -6.975,1.743 3.486,2.618 4.359,7.85 2.613,8.72 -0.797,0.578 -1.623,1.064 -2.466,1.471 0.246,0.18 0.478,0.352 0.688,0.516 1.847,1.432 0.739,6.137 0.739,6.137 0,0 4.798,-0.922 6.555,-3.736 1.751,-2.815 0.507,-7.245 0.507,-7.245 0,0 2.07,-0.368 4.01,-2.354 1.936,-1.984 1.925,-7.27 1.925,-7.27 z" id="path356" inkscape:connector-curvature="0" style="fill:#a7a9ac"/>
</g>
</svg>